solid OpenSCAD_Model
  facet normal 0.75267 -0.658398 0
    outer loop
      vertex 49.817 19.5487 7
      vertex 50.2285 20.0191 0
      vertex 50.2285 20.0191 7
    endloop
  endfacet
  facet normal 0.75267 -0.658398 0
    outer loop
      vertex 50.2285 20.0191 0
      vertex 49.817 19.5487 7
      vertex 49.817 19.5487 0
    endloop
  endfacet
  facet normal 0 0 -1
    outer loop
      vertex 61.8598 9.01432 7
      vertex 50.2285 20.0191 7
      vertex 62.2713 9.48473 7
    endloop
  endfacet
  facet normal 0 -0 -1
    outer loop
      vertex 50.2285 20.0191 7
      vertex 61.8598 9.01432 7
      vertex 49.817 19.5487 7
    endloop
  endfacet
  facet normal -0.752671 0.658397 0
    outer loop
      vertex 61.8598 9.01432 0
      vertex 62.2713 9.48473 7
      vertex 62.2713 9.48473 0
    endloop
  endfacet
  facet normal -0.752671 0.658397 0
    outer loop
      vertex 62.2713 9.48473 7
      vertex 61.8598 9.01432 0
      vertex 61.8598 9.01432 7
    endloop
  endfacet
  facet normal 0 0 -1
    outer loop
      vertex 49.817 19.5487 0
      vertex 47.2178 22.6527 0
      vertex 50.2285 20.0191 0
    endloop
  endfacet
  facet normal 0 -0 -1
    outer loop
      vertex 47.2178 22.6527 0
      vertex 49.817 19.5487 0
      vertex 46.3359 22.5938 0
    endloop
  endfacet
  facet normal 0 0 -1
    outer loop
      vertex 96.7339 30.6559 0
      vertex 91.4299 35.7938 0
      vertex 96.9808 30.9381 0
    endloop
  endfacet
  facet normal 0 -0 -1
    outer loop
      vertex 91.4299 35.7938 0
      vertex 96.7339 30.6559 0
      vertex 91.183 35.5115 0
    endloop
  endfacet
  facet normal 0 0 -1
    outer loop
      vertex 123.157 1.5639 0
      vertex 120.832 4.09567 0
      vertex 123.404 1.84615 0
    endloop
  endfacet
  facet normal 0 -0 -1
    outer loop
      vertex 120.832 4.09567 0
      vertex 123.157 1.5639 0
      vertex 120.303 4.06032 0
    endloop
  endfacet
  facet normal -0 0 -1
    outer loop
      vertex 123.541 -2.86918 0
      vertex 123.267 -3.1828 0
      vertex 123.259 -2.62228 0
    endloop
  endfacet
  facet normal 0 0 -1
    outer loop
      vertex 118.222 0.732224 0
      vertex 122.985 -2.9359 0
      vertex 122.738 -3.21814 0
    endloop
  endfacet
  facet normal 0 0 -1
    outer loop
      vertex 118.222 0.732224 0
      vertex 117.246 2.08437 0
      vertex 122.985 -2.9359 0
    endloop
  endfacet
  facet normal 0 0 -1
    outer loop
      vertex 117.587 0.955551 0
      vertex 117.246 2.08437 0
      vertex 118.222 0.732224 0
    endloop
  endfacet
  facet normal 0 -0 -1
    outer loop
      vertex 117.246 2.08437 0
      vertex 117.587 0.955551 0
      vertex 116.834 1.61395 0
    endloop
  endfacet
  facet normal 0 0 -1
    outer loop
      vertex 125.297 -0.862066 0
      vertex 125.015 -0.61516 0
      vertex 125.289 -0.301544 0
    endloop
  endfacet
  facet normal 0 0 -1
    outer loop
      vertex 120.832 4.09567 0
      vertex 125.899 10.458 0
      vertex 126.181 10.2111 0
    endloop
  endfacet
  facet normal 0 0 -1
    outer loop
      vertex 125.899 10.458 0
      vertex 120.832 4.09567 0
      vertex 120.303 4.06032 0
    endloop
  endfacet
  facet normal -0 0 -1
    outer loop
      vertex 131.168 5.84923 0
      vertex 125.536 -0.0193024 0
      vertex 130.886 6.09613 0
    endloop
  endfacet
  facet normal 0 0 -1
    outer loop
      vertex 125.297 -0.862066 0
      vertex 125.536 -0.0193024 0
      vertex 131.168 5.84923 0
    endloop
  endfacet
  facet normal 0 0 -1
    outer loop
      vertex 125.289 -0.301544 0
      vertex 125.536 -0.0193024 0
      vertex 125.297 -0.862066 0
    endloop
  endfacet
  facet normal 0 0 -1
    outer loop
      vertex 125.289 -0.301544 0
      vertex 125.16 0.309893 0
      vertex 125.536 -0.0193024 0
    endloop
  endfacet
  facet normal 0 -0 -1
    outer loop
      vertex 125.16 0.309893 0
      vertex 125.289 -0.301544 0
      vertex 124.913 0.0276459 0
    endloop
  endfacet
  facet normal 0 0 -1
    outer loop
      vertex 141.082 -1.99258 0
      vertex 132.299 -11.0836 0
      vertex 140.2 -2.05151 0
    endloop
  endfacet
  facet normal 0 0 -1
    outer loop
      vertex 125.774 -19.4922 0
      vertex 132.299 -11.0836 0
      vertex 141.082 -1.99258 0
    endloop
  endfacet
  facet normal 0 0 -1
    outer loop
      vertex 132.299 -11.0836 0
      vertex 125.774 -19.4922 0
      vertex 132.052 -11.3658 0
    endloop
  endfacet
  facet normal 0 0 -1
    outer loop
      vertex 125.774 -19.4922 0
      vertex 125.715 -18.6103 0
      vertex 132.052 -11.3658 0
    endloop
  endfacet
  facet normal 0 0 -1
    outer loop
      vertex 125.774 -19.4922 0
      vertex 116.683 -10.7095 0
      vertex 125.715 -18.6103 0
    endloop
  endfacet
  facet normal 0 0 -1
    outer loop
      vertex 111.003 -6.57112 0
      vertex 116.683 -10.7095 0
      vertex 125.774 -19.4922 0
    endloop
  endfacet
  facet normal 0 0 -1
    outer loop
      vertex 116.683 -10.7095 0
      vertex 111.003 -6.57112 0
      vertex 116.401 -10.4626 0
    endloop
  endfacet
  facet normal 0 0 -1
    outer loop
      vertex 116.401 -10.4626 0
      vertex 111.003 -6.57112 0
      vertex 111.885 -6.51221 0
    endloop
  endfacet
  facet normal 0 0 -1
    outer loop
      vertex 131.168 5.84923 0
      vertex 141.082 -1.99258 0
      vertex 140.2 -2.05151 0
    endloop
  endfacet
  facet normal 0 0 -1
    outer loop
      vertex 130.886 6.09613 0
      vertex 141.082 -1.99258 0
      vertex 131.168 5.84923 0
    endloop
  endfacet
  facet normal 0 0 -1
    outer loop
      vertex 122.547 14.2204 0
      vertex 130.886 6.09613 0
      vertex 126.181 10.2111 0
    endloop
  endfacet
  facet normal 0 0 -1
    outer loop
      vertex 122.547 14.2204 0
      vertex 126.181 10.2111 0
      vertex 125.899 10.458 0
    endloop
  endfacet
  facet normal 0 0 -1
    outer loop
      vertex 130.886 6.09613 0
      vertex 122.547 14.2204 0
      vertex 141.082 -1.99258 0
    endloop
  endfacet
  facet normal 0 0 -1
    outer loop
      vertex 125.899 10.458 0
      vertex 122.199 13.6951 0
      vertex 122.547 14.2204 0
    endloop
  endfacet
  facet normal 0 -0 -1
    outer loop
      vertex 122.199 13.6951 0
      vertex 125.899 10.458 0
      vertex 122.198 13.6951 0
    endloop
  endfacet
  facet normal 0 0 -1
    outer loop
      vertex 132.052 -11.3658 0
      vertex 123.267 -3.1828 0
      vertex 132.299 -11.0836 0
    endloop
  endfacet
  facet normal 0 0 -1
    outer loop
      vertex 123.02 -3.46504 0
      vertex 123.267 -3.1828 0
      vertex 132.052 -11.3658 0
    endloop
  endfacet
  facet normal 0 0 -1
    outer loop
      vertex 122.985 -2.9359 0
      vertex 123.267 -3.1828 0
      vertex 123.02 -3.46504 0
    endloop
  endfacet
  facet normal 0 0 -1
    outer loop
      vertex 123.267 -3.1828 0
      vertex 122.985 -2.9359 0
      vertex 123.259 -2.62228 0
    endloop
  endfacet
  facet normal 0 0 -1
    outer loop
      vertex 123.02 -3.46504 0
      vertex 122.738 -3.21814 0
      vertex 122.985 -2.9359 0
    endloop
  endfacet
  facet normal 0 0 -1
    outer loop
      vertex 116.683 -10.7095 0
      vertex 122.738 -3.21814 0
      vertex 123.02 -3.46504 0
    endloop
  endfacet
  facet normal 0 0 -1
    outer loop
      vertex 122.738 -3.21814 0
      vertex 116.683 -10.7095 0
      vertex 116.401 -10.4626 0
    endloop
  endfacet
  facet normal 0 0 -1
    outer loop
      vertex 122.547 14.2204 0
      vertex 136.809 31.4729 0
      vertex 137.69 31.5318 0
    endloop
  endfacet
  facet normal -0 0 -1
    outer loop
      vertex 122.547 14.2204 0
      vertex 121.665 14.1615 0
      vertex 136.809 31.4729 0
    endloop
  endfacet
  facet normal 0 0 -1
    outer loop
      vertex 121.665 14.1615 0
      vertex 122.547 14.2204 0
      vertex 122.199 13.6951 0
    endloop
  endfacet
  facet normal 0 0 -1
    outer loop
      vertex 117.992 47.9329 0
      vertex 137.69 31.5318 0
      vertex 136.809 31.4729 0
    endloop
  endfacet
  facet normal 0 0 -1
    outer loop
      vertex 117.992 47.9329 0
      vertex 117.933 48.8148 0
      vertex 137.69 31.5318 0
    endloop
  endfacet
  facet normal -0 0 -1
    outer loop
      vertex 117.992 47.9329 0
      vertex 110.855 40.7236 0
      vertex 117.933 48.8148 0
    endloop
  endfacet
  facet normal 0 0 -1
    outer loop
      vertex 117.992 47.9329 0
      vertex 110.444 40.2532 0
      vertex 110.855 40.7236 0
    endloop
  endfacet
  facet normal 0 0 -1
    outer loop
      vertex 102.766 30.5274 0
      vertex 110.444 40.2532 0
      vertex 117.992 47.9329 0
    endloop
  endfacet
  facet normal 0 0 -1
    outer loop
      vertex 102.766 30.5274 0
      vertex 102.543 31.2211 0
      vertex 110.444 40.2532 0
    endloop
  endfacet
  facet normal 0 0 -1
    outer loop
      vertex 102.233 30.9937 0
      vertex 102.543 31.2211 0
      vertex 102.766 30.5274 0
    endloop
  endfacet
  facet normal 0 0 -1
    outer loop
      vertex 102.233 30.9937 0
      vertex 96.5214 36.4883 0
      vertex 102.543 31.2211 0
    endloop
  endfacet
  facet normal 0 0 -1
    outer loop
      vertex 93.7343 38.4281 0
      vertex 96.5214 36.4883 0
      vertex 102.233 30.9937 0
    endloop
  endfacet
  facet normal 0 0 -1
    outer loop
      vertex 96.5214 36.4883 0
      vertex 93.7343 38.4281 0
      vertex 96.2392 36.7352 0
    endloop
  endfacet
  facet normal 0 0 -1
    outer loop
      vertex 93.452 38.675 0
      vertex 96.2392 36.7352 0
      vertex 93.7343 38.4281 0
    endloop
  endfacet
  facet normal 0 0 -1
    outer loop
      vertex 93.452 38.675 0
      vertex 87.2071 44.636 0
      vertex 96.2392 36.7352 0
    endloop
  endfacet
  facet normal 0 0 -1
    outer loop
      vertex 84.42 46.5758 0
      vertex 87.2071 44.636 0
      vertex 93.452 38.675 0
    endloop
  endfacet
  facet normal 0 0 -1
    outer loop
      vertex 87.2071 44.636 0
      vertex 84.42 46.5758 0
      vertex 86.9249 44.8829 0
    endloop
  endfacet
  facet normal 0 0 -1
    outer loop
      vertex 86.9249 44.8829 0
      vertex 84.42 46.5758 0
      vertex 84.6669 46.858 0
    endloop
  endfacet
  facet normal 0 0 -1
    outer loop
      vertex 91.4299 35.7938 0
      vertex 93.452 38.675 0
      vertex 93.7343 38.4281 0
    endloop
  endfacet
  facet normal 0 0 -1
    outer loop
      vertex 91.183 35.5115 0
      vertex 93.452 38.675 0
      vertex 91.4299 35.7938 0
    endloop
  endfacet
  facet normal 0 0 -1
    outer loop
      vertex 85.6335 29.7371 0
      vertex 91.183 35.5115 0
      vertex 85.9158 29.4902 0
    endloop
  endfacet
  facet normal -0 0 -1
    outer loop
      vertex 91.183 35.5115 0
      vertex 85.6335 29.7371 0
      vertex 93.452 38.675 0
    endloop
  endfacet
  facet normal 0 0 -1
    outer loop
      vertex 87.2071 44.636 0
      vertex 94.8256 53.9149 0
      vertex 95.1079 53.668 0
    endloop
  endfacet
  facet normal 0 0 -1
    outer loop
      vertex 94.8256 53.9149 0
      vertex 87.2071 44.636 0
      vertex 86.9249 44.8829 0
    endloop
  endfacet
  facet normal 0 0 -1
    outer loop
      vertex 96.5214 36.4883 0
      vertex 104.14 45.7672 0
      vertex 104.422 45.5203 0
    endloop
  endfacet
  facet normal 0 0 -1
    outer loop
      vertex 104.14 45.7672 0
      vertex 96.5214 36.4883 0
      vertex 96.2392 36.7352 0
    endloop
  endfacet
  facet normal 0 0 -1
    outer loop
      vertex 104.422 45.5203 0
      vertex 110.855 40.7236 0
      vertex 110.444 40.2532 0
    endloop
  endfacet
  facet normal 0 0 -1
    outer loop
      vertex 104.14 45.7672 0
      vertex 110.855 40.7236 0
      vertex 104.422 45.5203 0
    endloop
  endfacet
  facet normal 0 0 -1
    outer loop
      vertex 92.5087 56.772 0
      vertex 104.14 45.7672 0
      vertex 95.1079 53.668 0
    endloop
  endfacet
  facet normal 0 0 -1
    outer loop
      vertex 92.5087 56.772 0
      vertex 95.1079 53.668 0
      vertex 94.8256 53.9149 0
    endloop
  endfacet
  facet normal 0 0 -1
    outer loop
      vertex 92.5087 56.772 0
      vertex 94.8256 53.9149 0
      vertex 92.5676 55.8901 0
    endloop
  endfacet
  facet normal 0 0 -1
    outer loop
      vertex 104.14 45.7672 0
      vertex 92.5087 56.772 0
      vertex 110.855 40.7236 0
    endloop
  endfacet
  facet normal 0 0 -1
    outer loop
      vertex 84.6669 46.858 0
      vertex 92.5087 56.772 0
      vertex 92.5676 55.8901 0
    endloop
  endfacet
  facet normal 0 0 -1
    outer loop
      vertex 84.42 46.5758 0
      vertex 92.5087 56.772 0
      vertex 84.6669 46.858 0
    endloop
  endfacet
  facet normal 0 0 -1
    outer loop
      vertex 76.1311 38.0493 0
      vertex 84.42 46.5758 0
      vertex 76.6015 37.6378 0
    endloop
  endfacet
  facet normal -0 0 -1
    outer loop
      vertex 84.42 46.5758 0
      vertex 76.1311 38.0493 0
      vertex 92.5087 56.772 0
    endloop
  endfacet
  facet normal 0 0 -1
    outer loop
      vertex 82.2113 31.9002 0
      vertex 76.6015 37.6378 0
      vertex 82.6228 32.3707 0
    endloop
  endfacet
  facet normal 0 0 -1
    outer loop
      vertex 82.2113 31.9002 0
      vertex 76.1311 38.0493 0
      vertex 76.6015 37.6378 0
    endloop
  endfacet
  facet normal 0 0 -1
    outer loop
      vertex 66.9698 45.2328 0
      vertex 76.1311 38.0493 0
      vertex 82.2113 31.9002 0
    endloop
  endfacet
  facet normal 0 0 -1
    outer loop
      vertex 66.9698 45.2328 0
      vertex 66.9108 46.1147 0
      vertex 76.1311 38.0493 0
    endloop
  endfacet
  facet normal 0 0 -1
    outer loop
      vertex 47.2178 22.6527 0
      vertex 66.9108 46.1147 0
      vertex 66.9698 45.2328 0
    endloop
  endfacet
  facet normal 0 0 -1
    outer loop
      vertex 66.9108 46.1147 0
      vertex 47.2178 22.6527 0
      vertex 46.3359 22.5938 0
    endloop
  endfacet
  facet normal 0 0 -1
    outer loop
      vertex 86.257 28.3614 0
      vertex 85.9158 29.4902 0
      vertex 86.6684 28.8318 0
    endloop
  endfacet
  facet normal 0 0 -1
    outer loop
      vertex 86.257 28.3614 0
      vertex 85.6335 29.7371 0
      vertex 85.9158 29.4902 0
    endloop
  endfacet
  facet normal 0 0 -1
    outer loop
      vertex 84.4694 29.925 0
      vertex 85.6335 29.7371 0
      vertex 86.257 28.3614 0
    endloop
  endfacet
  facet normal 0 0 -1
    outer loop
      vertex 85.6335 29.7371 0
      vertex 84.4694 29.925 0
      vertex 84.8809 30.3955 0
    endloop
  endfacet
  facet normal 0 0 -1
    outer loop
      vertex 111.885 -6.51221 0
      vertex 117.587 0.955551 0
      vertex 118.222 0.732224 0
    endloop
  endfacet
  facet normal 0 0 -1
    outer loop
      vertex 117.587 0.955551 0
      vertex 111.885 -6.51221 0
      vertex 111.003 -6.57112 0
    endloop
  endfacet
  facet normal 0 0 -1
    outer loop
      vertex 114.576 3.58914 0
      vertex 114.235 4.71796 0
      vertex 114.988 4.05956 0
    endloop
  endfacet
  facet normal 0 0 -1
    outer loop
      vertex 113.765 5.12946 0
      vertex 114.235 4.71796 0
      vertex 114.576 3.58914 0
    endloop
  endfacet
  facet normal 0 0 -1
    outer loop
      vertex 94.5363 21.119 0
      vertex 113.765 5.12946 0
      vertex 114.576 3.58914 0
    endloop
  endfacet
  facet normal 0 0 -1
    outer loop
      vertex 113.765 5.12946 0
      vertex 94.5363 21.119 0
      vertex 94.9478 21.5894 0
    endloop
  endfacet
  facet normal -0 0 -1
    outer loop
      vertex 114.235 4.71797 0
      vertex 114.235 4.71796 0
      vertex 113.765 5.12946 0
    endloop
  endfacet
  facet normal 0 0 -1
    outer loop
      vertex 100.462 27.893 0
      vertex 99.7446 28.0223 0
      vertex 99.9915 28.3045 0
    endloop
  endfacet
  facet normal 0 0 -1
    outer loop
      vertex 94.9478 21.5894 0
      vertex 99.7446 28.0223 0
      vertex 100.462 27.893 0
    endloop
  endfacet
  facet normal 0 0 -1
    outer loop
      vertex 94.4774 22.0009 0
      vertex 94.9478 21.5894 0
      vertex 94.5363 21.119 0
    endloop
  endfacet
  facet normal 0 0 -1
    outer loop
      vertex 94.9478 21.5894 0
      vertex 94.4774 22.0009 0
      vertex 99.7446 28.0223 0
    endloop
  endfacet
  facet normal 0 0 -1
    outer loop
      vertex 94.5363 21.119 0
      vertex 94.0659 21.5305 0
      vertex 94.4774 22.0009 0
    endloop
  endfacet
  facet normal 0 0 -1
    outer loop
      vertex 74.314 -1.04962 0
      vertex 94.5363 21.119 0
      vertex 74.3729 -1.93153 0
    endloop
  endfacet
  facet normal -0 0 -1
    outer loop
      vertex 94.5363 21.119 0
      vertex 74.314 -1.04962 0
      vertex 94.0659 21.5305 0
    endloop
  endfacet
  facet normal 0 0 -1
    outer loop
      vertex 71.6445 0.455155 0
      vertex 74.314 -1.04962 0
      vertex 74.3729 -1.93153 0
    endloop
  endfacet
  facet normal 0 0 -1
    outer loop
      vertex 74.314 -1.04962 0
      vertex 71.6445 0.455155 0
      vertex 72.056 0.925568 0
    endloop
  endfacet
  facet normal 0 0 -1
    outer loop
      vertex 99.7446 28.0223 0
      vertex 99.2388 28.9629 0
      vertex 99.9915 28.3045 0
    endloop
  endfacet
  facet normal 0 -0 -1
    outer loop
      vertex 99.2388 28.9629 0
      vertex 99.7446 28.0223 0
      vertex 98.9919 28.6807 0
    endloop
  endfacet
  facet normal 0 0 -1
    outer loop
      vertex 94.0659 21.5305 0
      vertex 88.9265 26.8566 0
      vertex 94.4774 22.0009 0
    endloop
  endfacet
  facet normal 0 -0 -1
    outer loop
      vertex 88.9265 26.8566 0
      vertex 94.0659 21.5305 0
      vertex 88.515 26.3862 0
    endloop
  endfacet
  facet normal 0 0 -1
    outer loop
      vertex 64.8704 6.38073 0
      vertex 62.2713 9.48473 0
      vertex 65.2819 6.85114 0
    endloop
  endfacet
  facet normal 0 -0 -1
    outer loop
      vertex 62.2713 9.48473 0
      vertex 64.8704 6.38073 0
      vertex 61.8598 9.01432 0
    endloop
  endfacet
  facet normal 0.752673 -0.658394 0
    outer loop
      vertex 64.8704 6.38073 7
      vertex 65.2819 6.85114 0
      vertex 65.2819 6.85114 7
    endloop
  endfacet
  facet normal 0.752673 -0.658394 0
    outer loop
      vertex 65.2819 6.85114 0
      vertex 64.8704 6.38073 7
      vertex 64.8704 6.38073 0
    endloop
  endfacet
  facet normal 0 0 -1
    outer loop
      vertex 71.6445 0.455155 7
      vertex 65.2819 6.85114 7
      vertex 72.056 0.925568 7
    endloop
  endfacet
  facet normal 0 -0 -1
    outer loop
      vertex 65.2819 6.85114 7
      vertex 71.6445 0.455155 7
      vertex 64.8704 6.38073 7
    endloop
  endfacet
  facet normal -0.752672 0.658396 0
    outer loop
      vertex 71.6445 0.455155 0
      vertex 72.056 0.925568 7
      vertex 72.056 0.925568 0
    endloop
  endfacet
  facet normal -0.752672 0.658396 0
    outer loop
      vertex 72.056 0.925568 7
      vertex 71.6445 0.455155 0
      vertex 71.6445 0.455155 7
    endloop
  endfacet
  facet normal 0.752669 -0.6584 0
    outer loop
      vertex 86.257 28.3614 6.66667
      vertex 86.6684 28.8318 0
      vertex 86.6684 28.8318 6.66667
    endloop
  endfacet
  facet normal 0.752669 -0.6584 0
    outer loop
      vertex 86.6684 28.8318 0
      vertex 86.257 28.3614 6.66667
      vertex 86.257 28.3614 0
    endloop
  endfacet
  facet normal 0 0 -1
    outer loop
      vertex 88.515 26.3862 6.66667
      vertex 86.6684 28.8318 6.66667
      vertex 88.9265 26.8566 6.66667
    endloop
  endfacet
  facet normal 0 -0 -1
    outer loop
      vertex 86.6684 28.8318 6.66667
      vertex 88.515 26.3862 6.66667
      vertex 86.257 28.3614 6.66667
    endloop
  endfacet
  facet normal -0.752667 0.658401 0
    outer loop
      vertex 88.515 26.3862 0
      vertex 88.9265 26.8566 6.66667
      vertex 88.9265 26.8566 0
    endloop
  endfacet
  facet normal -0.752667 0.658401 0
    outer loop
      vertex 88.9265 26.8566 6.66667
      vertex 88.515 26.3862 0
      vertex 88.515 26.3862 6.66667
    endloop
  endfacet
  facet normal 0.75267 -0.658398 0
    outer loop
      vertex 96.7339 30.6559 6.66667
      vertex 96.9808 30.9381 0
      vertex 96.9808 30.9381 6.66667
    endloop
  endfacet
  facet normal 0.75267 -0.658398 0
    outer loop
      vertex 96.9808 30.9381 0
      vertex 96.7339 30.6559 6.66667
      vertex 96.7339 30.6559 0
    endloop
  endfacet
  facet normal 0 0 -1
    outer loop
      vertex 98.9919 28.6807 6.66667
      vertex 96.9808 30.9381 6.66667
      vertex 99.2388 28.9629 6.66667
    endloop
  endfacet
  facet normal 0 -0 -1
    outer loop
      vertex 96.9808 30.9381 6.66667
      vertex 98.9919 28.6807 6.66667
      vertex 96.7339 30.6559 6.66667
    endloop
  endfacet
  facet normal -0.752672 0.658395 0
    outer loop
      vertex 98.9919 28.6807 0
      vertex 99.2388 28.9629 6.66667
      vertex 99.2388 28.9629 0
    endloop
  endfacet
  facet normal -0.752672 0.658395 0
    outer loop
      vertex 99.2388 28.9629 6.66667
      vertex 98.9919 28.6807 0
      vertex 98.9919 28.6807 6.66667
    endloop
  endfacet
  facet normal -0.658398 -0.75267 0
    outer loop
      vertex 122.547 14.2204 11.6884
      vertex 124.053 12.9036 13.75
      vertex 122.547 14.2204 13.75
    endloop
  endfacet
  facet normal -0.658398 -0.75267 -0
    outer loop
      vertex 124.053 12.9036 13.75
      vertex 122.547 14.2204 11.6884
      vertex 124.053 12.9036 11.6884
    endloop
  endfacet
  facet normal 0.658397 0.752671 0
    outer loop
      vertex 122.077 14.6319 13.75
      vertex 122.547 14.2204 17.2822
      vertex 122.547 14.2204 13.75
    endloop
  endfacet
  facet normal 0.658397 0.752671 0
    outer loop
      vertex 122.547 14.2204 17.2822
      vertex 122.077 14.6319 13.75
      vertex 122.077 14.6319 17.4384
    endloop
  endfacet
  facet normal 0.75267 -0.658398 0
    outer loop
      vertex 112.036 3.15371 9.9375
      vertex 113.353 4.65904 8.37594
      vertex 113.353 4.65904 10.4375
    endloop
  endfacet
  facet normal 0.75267 -0.658398 0
    outer loop
      vertex 113.353 4.65904 8.37594
      vertex 112.036 3.15371 9.9375
      vertex 112.036 3.15371 7.87595
    endloop
  endfacet
  facet normal 0.75267 -0.658398 0
    outer loop
      vertex 113.765 5.12946 10.5937
      vertex 122.077 14.6319 11.6884
      vertex 122.077 14.6319 13.75
    endloop
  endfacet
  facet normal 0.75267 -0.658398 0
    outer loop
      vertex 122.077 14.6319 11.6884
      vertex 113.765 5.12946 10.5937
      vertex 113.765 5.12946 8.53219
    endloop
  endfacet
  facet normal -0.752672 0.658396 0
    outer loop
      vertex 113.353 4.65904 17.4384
      vertex 113.765 5.12946 10.5937
      vertex 113.353 4.65904 10.4375
    endloop
  endfacet
  facet normal -0.752672 0.658396 0
    outer loop
      vertex 113.765 5.12946 10.5937
      vertex 113.353 4.65904 17.4384
      vertex 113.765 5.12946 17.4384
    endloop
  endfacet
  facet normal -0.658375 -0.75269 0
    outer loop
      vertex 109.35 42.0404 14.7509
      vertex 109.441 41.9606 16.8125
      vertex 109.35 42.0404 16.7822
    endloop
  endfacet
  facet normal -0.658397 -0.752671 1.65586e-06
    outer loop
      vertex 109.441 41.9606 16.8125
      vertex 109.35 42.0404 14.7509
      vertex 110.855 40.7236 14.7509
    endloop
  endfacet
  facet normal -0.658398 -0.75267 0
    outer loop
      vertex 109.441 41.9606 16.8125
      vertex 110.855 40.7236 14.7509
      vertex 110.855 40.7236 16.8125
    endloop
  endfacet
  facet normal 0.658397 0.752671 -0
    outer loop
      vertex 111.325 40.3121 16.8125
      vertex 110.855 40.7236 17.2822
      vertex 111.325 40.3121 17.4384
    endloop
  endfacet
  facet normal 0.658397 0.752671 0
    outer loop
      vertex 110.855 40.7236 17.2822
      vertex 111.325 40.3121 16.8125
      vertex 110.855 40.7236 16.8125
    endloop
  endfacet
  facet normal -0.75267 0.658398 0
    outer loop
      vertex 93.2195 19.6136 9.9375
      vertex 94.5363 21.119 8.37594
      vertex 93.2195 19.6136 7.87595
    endloop
  endfacet
  facet normal -0.75267 0.658398 0
    outer loop
      vertex 94.5363 21.119 8.37594
      vertex 93.2195 19.6136 9.9375
      vertex 94.5363 21.119 10.4375
    endloop
  endfacet
  facet normal 0.75267 -0.658397 0
    outer loop
      vertex 108.34 36.8987 17.4384
      vertex 111.325 40.3121 16.8125
      vertex 111.325 40.3121 17.4384
    endloop
  endfacet
  facet normal 0.75267 -0.658397 0
    outer loop
      vertex 111.325 40.3121 16.8125
      vertex 108.34 36.8987 17.4384
      vertex 108.34 36.8987 15.6787
    endloop
  endfacet
  facet normal 0.752669 -0.6584 0
    outer loop
      vertex 94.5363 21.119 17.4384
      vertex 94.9478 21.5894 10.5937
      vertex 94.9478 21.5894 17.4384
    endloop
  endfacet
  facet normal 0.752669 -0.6584 0
    outer loop
      vertex 94.9478 21.5894 10.5937
      vertex 94.5363 21.119 17.4384
      vertex 94.5363 21.119 10.4375
    endloop
  endfacet
  facet normal -0.75267 0.658398 0
    outer loop
      vertex 94.9478 21.5894 10.5937
      vertex 108.34 36.8987 13.6172
      vertex 94.9478 21.5894 8.53219
    endloop
  endfacet
  facet normal -0.75267 0.658398 0
    outer loop
      vertex 108.34 36.8987 13.6172
      vertex 94.9478 21.5894 10.5937
      vertex 108.34 36.8987 15.6787
    endloop
  endfacet
  facet normal 0.159685 0.18255 -0.970142
    outer loop
      vertex 124.053 12.9036 11.6884
      vertex 137.69 31.5318 17.4384
      vertex 140.513 31.7204 17.9384
    endloop
  endfacet
  facet normal 0.159685 0.182549 -0.970142
    outer loop
      vertex 137.69 31.5318 17.4384
      vertex 124.053 12.9036 11.6884
      vertex 122.547 14.2204 11.6884
    endloop
  endfacet
  facet normal 0.159685 0.182549 -0.970143
    outer loop
      vertex 117.933 48.8148 17.4384
      vertex 140.513 31.7204 17.9384
      vertex 137.69 31.5318 17.4384
    endloop
  endfacet
  facet normal 0.159686 0.18255 -0.970142
    outer loop
      vertex 117.933 48.8148 17.4384
      vertex 117.744 51.6369 17.9384
      vertex 140.513 31.7204 17.9384
    endloop
  endfacet
  facet normal 0.159685 0.18255 -0.970143
    outer loop
      vertex 109.35 42.0404 14.7509
      vertex 117.933 48.8148 17.4384
      vertex 110.855 40.7236 14.7509
    endloop
  endfacet
  facet normal 0.159684 0.18255 -0.970142
    outer loop
      vertex 117.933 48.8148 17.4384
      vertex 109.35 42.0404 14.7509
      vertex 117.744 51.6369 17.9384
    endloop
  endfacet
  facet normal 0.159685 0.182549 -0.970143
    outer loop
      vertex 112.036 3.15371 7.87595
      vertex 94.5363 21.119 8.37594
      vertex 113.353 4.65904 8.37594
    endloop
  endfacet
  facet normal 0.159685 0.182549 -0.970142
    outer loop
      vertex 94.5363 21.119 8.37594
      vertex 112.036 3.15371 7.87595
      vertex 93.2195 19.6136 7.87595
    endloop
  endfacet
  facet normal 0.159685 0.182549 -0.970143
    outer loop
      vertex 108.34 36.8987 13.6172
      vertex 136.809 31.4729 17.2822
      vertex 122.077 14.6319 11.6884
    endloop
  endfacet
  facet normal 0.159685 0.182549 -0.970143
    outer loop
      vertex 94.9478 21.5894 8.53219
      vertex 122.077 14.6319 11.6884
      vertex 113.765 5.12946 8.53219
    endloop
  endfacet
  facet normal 0.159685 0.182549 -0.970142
    outer loop
      vertex 136.809 31.4729 17.2822
      vertex 108.34 36.8987 13.6172
      vertex 117.992 47.9329 17.2822
    endloop
  endfacet
  facet normal 0.159685 0.182549 -0.970142
    outer loop
      vertex 122.077 14.6319 11.6884
      vertex 94.9478 21.5894 8.53219
      vertex 108.34 36.8987 13.6172
    endloop
  endfacet
  facet normal -0.658402 -0.752667 0
    outer loop
      vertex 102.233 30.9937 0
      vertex 102.766 30.5274 11.5009
      vertex 102.233 30.9937 11.5009
    endloop
  endfacet
  facet normal -0.658402 -0.752667 -0
    outer loop
      vertex 102.766 30.5274 11.5009
      vertex 102.233 30.9937 0
      vertex 102.766 30.5274 0
    endloop
  endfacet
  facet normal 0.658395 0.752673 -0
    outer loop
      vertex 100.462 27.893 0
      vertex 99.9915 28.3045 10.6259
      vertex 100.462 27.893 10.6259
    endloop
  endfacet
  facet normal 0.658395 0.752673 0
    outer loop
      vertex 99.9915 28.3045 10.6259
      vertex 100.462 27.893 0
      vertex 99.9915 28.3045 0
    endloop
  endfacet
  facet normal -0.780869 0.624695 0
    outer loop
      vertex 122.198 13.6951 11.5322
      vertex 122.199 13.6951 0
      vertex 122.198 13.6951 0
    endloop
  endfacet
  facet normal -0.780869 0.624695 0
    outer loop
      vertex 122.199 13.6951 0
      vertex 122.198 13.6951 11.5322
      vertex 122.199 13.6951 11.5322
    endloop
  endfacet
  facet normal 0.6584 0.752669 -0
    outer loop
      vertex 114.235 4.71797 0
      vertex 113.765 5.12946 8.5322
      vertex 114.235 4.71797 8.5322
    endloop
  endfacet
  facet normal 0.6584 0.752669 0
    outer loop
      vertex 113.765 5.12946 8.5322
      vertex 114.235 4.71797 0
      vertex 113.765 5.12946 0
    endloop
  endfacet
  facet normal -0.658399 -0.752669 0
    outer loop
      vertex 121.665 14.1615 0
      vertex 122.199 13.6951 11.5322
      vertex 121.665 14.1615 11.5322
    endloop
  endfacet
  facet normal -0.658399 -0.752669 -0
    outer loop
      vertex 122.199 13.6951 11.5322
      vertex 121.665 14.1615 0
      vertex 122.199 13.6951 0
    endloop
  endfacet
  facet normal 0.159686 0.182549 -0.970142
    outer loop
      vertex 100.462 27.893 10.6259
      vertex 102.296 30.9389 11.5009
      vertex 102.766 30.5274 11.5009
    endloop
  endfacet
  facet normal 0.159684 0.18255 -0.970143
    outer loop
      vertex 102.296 30.9389 11.5009
      vertex 100.462 27.893 10.6259
      vertex 99.9915 28.3045 10.6259
    endloop
  endfacet
  facet normal 0.148974 0.170303 -0.974065
    outer loop
      vertex 102.296 30.9389 11.5009
      vertex 102.233 30.9937 11.5009
      vertex 102.766 30.5274 11.5009
    endloop
  endfacet
  facet normal 0.196464 0.224605 -0.954439
    outer loop
      vertex 122.136 13.75 11.5322
      vertex 122.199 13.6951 11.5322
      vertex 122.198 13.6951 11.5322
    endloop
  endfacet
  facet normal 0.17193 0.196547 -0.965303
    outer loop
      vertex 122.136 13.75 11.5322
      vertex 121.665 14.1615 11.5322
      vertex 122.199 13.6951 11.5322
    endloop
  endfacet
  facet normal 0.159685 0.182549 -0.970143
    outer loop
      vertex 114.235 4.71797 8.5322
      vertex 121.665 14.1615 11.5322
      vertex 122.136 13.75 11.5322
    endloop
  endfacet
  facet normal 0.159685 0.182549 -0.970143
    outer loop
      vertex 121.665 14.1615 11.5322
      vertex 114.235 4.71797 8.5322
      vertex 113.765 5.12946 8.5322
    endloop
  endfacet
  facet normal 0.752674 -0.658394 0
    outer loop
      vertex 82.2113 31.9002 6.66667
      vertex 82.6228 32.3707 0
      vertex 82.6228 32.3707 6.66667
    endloop
  endfacet
  facet normal 0.752674 -0.658394 0
    outer loop
      vertex 82.6228 32.3707 0
      vertex 82.2113 31.9002 6.66667
      vertex 82.2113 31.9002 0
    endloop
  endfacet
  facet normal 0 0 -1
    outer loop
      vertex 84.4694 29.925 6.66667
      vertex 82.6228 32.3707 6.66667
      vertex 84.8809 30.3955 6.66667
    endloop
  endfacet
  facet normal 0 -0 -1
    outer loop
      vertex 82.6228 32.3707 6.66667
      vertex 84.4694 29.925 6.66667
      vertex 82.2113 31.9002 6.66667
    endloop
  endfacet
  facet normal -0.752673 0.658395 0
    outer loop
      vertex 84.4694 29.925 0
      vertex 84.8809 30.3955 6.66667
      vertex 84.8809 30.3955 0
    endloop
  endfacet
  facet normal -0.752673 0.658395 0
    outer loop
      vertex 84.8809 30.3955 6.66667
      vertex 84.4694 29.925 0
      vertex 84.4694 29.925 6.66667
    endloop
  endfacet
  facet normal 0.75267 -0.658398 0
    outer loop
      vertex 114.576 3.58914 6.66667
      vertex 114.988 4.05956 0
      vertex 114.988 4.05956 6.66667
    endloop
  endfacet
  facet normal 0.75267 -0.658398 0
    outer loop
      vertex 114.988 4.05956 0
      vertex 114.576 3.58914 6.66667
      vertex 114.576 3.58914 0
    endloop
  endfacet
  facet normal 0 0 -1
    outer loop
      vertex 116.834 1.61395 6.66667
      vertex 114.988 4.05956 6.66667
      vertex 117.246 2.08437 6.66667
    endloop
  endfacet
  facet normal 0 -0 -1
    outer loop
      vertex 114.988 4.05956 6.66667
      vertex 116.834 1.61395 6.66667
      vertex 114.576 3.58914 6.66667
    endloop
  endfacet
  facet normal -0.752671 0.658397 0
    outer loop
      vertex 116.834 1.61395 0
      vertex 117.246 2.08437 6.66667
      vertex 117.246 2.08437 0
    endloop
  endfacet
  facet normal -0.752671 0.658397 0
    outer loop
      vertex 117.246 2.08437 6.66667
      vertex 116.834 1.61395 0
      vertex 116.834 1.61395 6.66667
    endloop
  endfacet
  facet normal 0.752672 -0.658395 0
    outer loop
      vertex 123.157 1.5639 6.66667
      vertex 123.404 1.84615 0
      vertex 123.404 1.84615 6.66667
    endloop
  endfacet
  facet normal 0.752672 -0.658395 0
    outer loop
      vertex 123.404 1.84615 0
      vertex 123.157 1.5639 6.66667
      vertex 123.157 1.5639 0
    endloop
  endfacet
  facet normal 0 0 -1
    outer loop
      vertex 124.913 0.0276459 6.66667
      vertex 123.404 1.84615 6.66667
      vertex 125.16 0.309893 6.66667
    endloop
  endfacet
  facet normal 0 -0 -1
    outer loop
      vertex 123.404 1.84615 6.66667
      vertex 124.913 0.0276459 6.66667
      vertex 123.157 1.5639 6.66667
    endloop
  endfacet
  facet normal -0.752671 0.658396 0
    outer loop
      vertex 124.913 0.0276459 0
      vertex 125.16 0.309893 6.66667
      vertex 125.16 0.309893 0
    endloop
  endfacet
  facet normal -0.752671 0.658396 0
    outer loop
      vertex 125.16 0.309893 6.66667
      vertex 124.913 0.0276459 0
      vertex 124.913 0.0276459 6.66667
    endloop
  endfacet
  facet normal 0 0 -1
    outer loop
      vertex 123.541 -2.86918 6.66667
      vertex 125.015 -0.61516 6.66667
      vertex 125.297 -0.862066 6.66667
    endloop
  endfacet
  facet normal 0 0 -1
    outer loop
      vertex 125.015 -0.61516 6.66667
      vertex 123.541 -2.86918 6.66667
      vertex 123.259 -2.62228 6.66667
    endloop
  endfacet
  facet normal 0.658397 0.752671 -0
    outer loop
      vertex 123.541 -2.86918 0
      vertex 123.259 -2.62228 6.66667
      vertex 123.541 -2.86918 6.66667
    endloop
  endfacet
  facet normal 0.658397 0.752671 0
    outer loop
      vertex 123.259 -2.62228 6.66667
      vertex 123.541 -2.86918 0
      vertex 123.259 -2.62228 0
    endloop
  endfacet
  facet normal -0.65839 -0.752677 0
    outer loop
      vertex 125.015 -0.61516 0
      vertex 125.297 -0.862066 6.66667
      vertex 125.015 -0.61516 6.66667
    endloop
  endfacet
  facet normal -0.65839 -0.752677 -0
    outer loop
      vertex 125.297 -0.862066 6.66667
      vertex 125.015 -0.61516 0
      vertex 125.297 -0.862066 0
    endloop
  endfacet
  facet normal 0.658396 0.752672 -0
    outer loop
      vertex 141.082 -1.99258 0
      vertex 140.971 -1.89596 11.1626
      vertex 141.082 -1.99258 11.126
    endloop
  endfacet
  facet normal 0.658397 0.752671 2.64287e-08
    outer loop
      vertex 122.547 14.2204 0
      vertex 140.971 -1.89596 11.1626
      vertex 141.082 -1.99258 0
    endloop
  endfacet
  facet normal 0.658397 0.752671 0
    outer loop
      vertex 140.971 -1.89596 11.1626
      vertex 122.547 14.2204 0
      vertex 122.547 14.2204 17.2822
    endloop
  endfacet
  facet normal 0.529999 -0.847998 0
    outer loop
      vertex 122.547 14.2204 13.75
      vertex 122.547 14.2204 17.2822
      vertex 122.547 14.2204 11.6884
    endloop
  endfacet
  facet normal 0.75267 -0.658397 0
    outer loop
      vertex 122.547 14.2204 11.6884
      vertex 137.69 31.5318 0
      vertex 137.69 31.5318 17.4384
    endloop
  endfacet
  facet normal 0.75267 -0.658398 -2.22693e-07
    outer loop
      vertex 122.547 14.2204 11.6884
      vertex 122.547 14.2204 0
      vertex 137.69 31.5318 0
    endloop
  endfacet
  facet normal 0.529999 -0.847998 0
    outer loop
      vertex 122.547 14.2204 0
      vertex 122.547 14.2204 11.6884
      vertex 122.547 14.2204 17.2822
    endloop
  endfacet
  facet normal 0.658397 0.752671 -0
    outer loop
      vertex 137.69 31.5318 0
      vertex 117.933 48.8148 17.4384
      vertex 137.69 31.5318 17.4384
    endloop
  endfacet
  facet normal 0.658397 0.752671 0
    outer loop
      vertex 117.933 48.8148 17.4384
      vertex 137.69 31.5318 0
      vertex 117.933 48.8148 0
    endloop
  endfacet
  facet normal -0.75267 0.658398 0
    outer loop
      vertex 117.933 48.8148 0
      vertex 110.855 40.7236 14.7509
      vertex 117.933 48.8148 17.4384
    endloop
  endfacet
  facet normal -0.83205 0.5547 0
    outer loop
      vertex 110.855 40.7236 17.2822
      vertex 110.855 40.7236 16.8125
      vertex 110.855 40.7236 14.7509
    endloop
  endfacet
  facet normal -0.75267 0.658398 -1.21507e-07
    outer loop
      vertex 110.855 40.7236 0
      vertex 110.855 40.7236 14.7509
      vertex 117.933 48.8148 0
    endloop
  endfacet
  facet normal -0.83205 0.5547 0
    outer loop
      vertex 110.855 40.7236 17.2822
      vertex 110.855 40.7236 14.7509
      vertex 110.855 40.7236 0
    endloop
  endfacet
  facet normal 0.658397 0.752671 -0
    outer loop
      vertex 110.855 40.7236 0
      vertex 92.5087 56.772 11.1884
      vertex 110.855 40.7236 17.2822
    endloop
  endfacet
  facet normal 0.658397 0.752671 0
    outer loop
      vertex 92.5087 56.772 11.1884
      vertex 110.855 40.7236 0
      vertex 92.5087 56.772 0
    endloop
  endfacet
  facet normal -0.75267 0.658398 0
    outer loop
      vertex 76.1311 38.0493 0
      vertex 92.5087 56.772 11.1884
      vertex 92.5087 56.772 0
    endloop
  endfacet
  facet normal -0.75267 0.658398 0
    outer loop
      vertex 92.5087 56.772 11.1884
      vertex 76.1311 38.0493 0
      vertex 76.1311 38.0493 11.1884
    endloop
  endfacet
  facet normal 0.658397 0.752671 -0
    outer loop
      vertex 76.1311 38.0493 0
      vertex 66.9108 46.1147 8.12595
      vertex 76.1311 38.0493 11.1884
    endloop
  endfacet
  facet normal 0.658397 0.752671 0
    outer loop
      vertex 66.9108 46.1147 8.12595
      vertex 76.1311 38.0493 0
      vertex 66.9108 46.1147 0
    endloop
  endfacet
  facet normal -0.752671 0.658397 0
    outer loop
      vertex 46.3359 22.5938 0
      vertex 66.9108 46.1147 8.12595
      vertex 66.9108 46.1147 0
    endloop
  endfacet
  facet normal -0.752671 0.658397 0
    outer loop
      vertex 66.9108 46.1147 8.12595
      vertex 46.3359 22.5938 0
      vertex 46.3359 22.5938 8.12595
    endloop
  endfacet
  facet normal -0.658397 -0.752671 0
    outer loop
      vertex 61.8598 9.01432 0
      vertex 64.8704 6.38073 7
      vertex 61.8598 9.01432 7
    endloop
  endfacet
  facet normal -0.658397 -0.752671 -0
    outer loop
      vertex 64.8704 6.38073 7
      vertex 61.8598 9.01432 0
      vertex 64.8704 6.38073 0
    endloop
  endfacet
  facet normal -0.658397 -0.752671 0
    outer loop
      vertex 46.3359 22.5938 0
      vertex 49.817 19.5487 7
      vertex 46.3359 22.5938 8.12595
    endloop
  endfacet
  facet normal -0.658397 -0.752671 -0
    outer loop
      vertex 49.817 19.5487 7
      vertex 46.3359 22.5938 0
      vertex 49.817 19.5487 0
    endloop
  endfacet
  facet normal -0.658397 -0.752671 -1.47539e-07
    outer loop
      vertex 49.817 19.5487 7
      vertex 74.3729 -1.93153 17.4384
      vertex 46.3359 22.5938 8.12595
    endloop
  endfacet
  facet normal -0.658397 -0.752671 -5.74434e-08
    outer loop
      vertex 61.8598 9.01432 7
      vertex 74.3729 -1.93153 17.4384
      vertex 49.817 19.5487 7
    endloop
  endfacet
  facet normal -0.658397 -0.752671 -5.57459e-07
    outer loop
      vertex 64.8704 6.38073 7
      vertex 74.3729 -1.93153 17.4384
      vertex 61.8598 9.01432 7
    endloop
  endfacet
  facet normal -0.658397 -0.752671 1.53732e-07
    outer loop
      vertex 71.6445 0.455155 7
      vertex 74.3729 -1.93153 17.4384
      vertex 64.8704 6.38073 7
    endloop
  endfacet
  facet normal -0.658397 -0.752671 0
    outer loop
      vertex 74.3729 -1.93153 0
      vertex 71.6445 0.455155 7
      vertex 71.6445 0.455155 0
    endloop
  endfacet
  facet normal -0.658397 -0.752671 0
    outer loop
      vertex 71.6445 0.455155 7
      vertex 74.3729 -1.93153 0
      vertex 74.3729 -1.93153 17.4384
    endloop
  endfacet
  facet normal 0.752671 -0.658397 0
    outer loop
      vertex 74.3729 -1.93153 17.4384
      vertex 94.5363 21.119 0
      vertex 94.5363 21.119 17.4384
    endloop
  endfacet
  facet normal 0.752671 -0.658397 0
    outer loop
      vertex 94.5363 21.119 0
      vertex 74.3729 -1.93153 17.4384
      vertex 74.3729 -1.93153 0
    endloop
  endfacet
  facet normal -0.707107 -0.707107 0
    outer loop
      vertex 94.5363 21.119 17.4384
      vertex 94.5363 21.119 8.37594
      vertex 94.5363 21.119 10.4375
    endloop
  endfacet
  facet normal -0.658398 -0.75267 -8.58701e-08
    outer loop
      vertex 94.5363 21.119 0
      vertex 113.353 4.65904 8.37594
      vertex 94.5363 21.119 8.37594
    endloop
  endfacet
  facet normal -0.707107 -0.707107 0
    outer loop
      vertex 94.5363 21.119 0
      vertex 94.5363 21.119 8.37594
      vertex 94.5363 21.119 17.4384
    endloop
  endfacet
  facet normal -0.658398 -0.75267 -1.40789e-07
    outer loop
      vertex 114.576 3.58914 0
      vertex 113.353 4.65904 8.37594
      vertex 94.5363 21.119 0
    endloop
  endfacet
  facet normal -0.658397 -0.752671 0
    outer loop
      vertex 113.353 4.65904 8.37594
      vertex 114.576 3.58914 0
      vertex 114.576 3.58914 6.66667
    endloop
  endfacet
  facet normal -0.658398 -0.75267 0
    outer loop
      vertex 113.353 4.65904 10.4375
      vertex 117.587 0.955551 16.0322
      vertex 113.353 4.65904 17.4384
    endloop
  endfacet
  facet normal -0.658397 -0.75267 0
    outer loop
      vertex 116.834 1.61395 6.66667
      vertex 113.353 4.65904 10.4375
      vertex 113.353 4.65904 8.37594
    endloop
  endfacet
  facet normal -0.658398 -0.75267 -6.20958e-07
    outer loop
      vertex 116.834 1.61395 6.66667
      vertex 113.353 4.65904 8.37594
      vertex 114.576 3.58914 6.66667
    endloop
  endfacet
  facet normal -0.658397 -0.75267 -1.75303e-07
    outer loop
      vertex 113.353 4.65904 10.4375
      vertex 116.834 1.61395 6.66667
      vertex 117.587 0.955551 16.0322
    endloop
  endfacet
  facet normal -0.658399 -0.752669 0
    outer loop
      vertex 117.587 0.955551 0
      vertex 116.834 1.61395 6.66667
      vertex 116.834 1.61395 0
    endloop
  endfacet
  facet normal -0.658399 -0.752669 0
    outer loop
      vertex 116.834 1.61395 6.66667
      vertex 117.587 0.955551 0
      vertex 117.587 0.955551 16.0322
    endloop
  endfacet
  facet normal -0.752669 0.658399 0
    outer loop
      vertex 117.587 0.955551 0
      vertex 114.363 -2.72979 16.0322
      vertex 117.587 0.955551 16.0322
    endloop
  endfacet
  facet normal -0.752669 0.658399 5.03091e-08
    outer loop
      vertex 111.003 -6.57112 0
      vertex 114.363 -2.72979 16.0322
      vertex 117.587 0.955551 0
    endloop
  endfacet
  facet normal -0.752669 0.658399 0
    outer loop
      vertex 114.363 -2.72979 16.0322
      vertex 111.003 -6.57112 0
      vertex 111.003 -6.57112 16.0322
    endloop
  endfacet
  facet normal -0.658398 -0.75267 0
    outer loop
      vertex 111.003 -6.57112 0
      vertex 125.774 -19.4922 11.1259
      vertex 111.003 -6.57112 16.0322
    endloop
  endfacet
  facet normal -0.658398 -0.75267 -0
    outer loop
      vertex 125.774 -19.4922 11.1259
      vertex 111.003 -6.57112 0
      vertex 125.774 -19.4922 0
    endloop
  endfacet
  facet normal 0.752671 -0.658397 0
    outer loop
      vertex 125.774 -19.4922 11.1259
      vertex 141.082 -1.99258 0
      vertex 141.082 -1.99258 11.126
    endloop
  endfacet
  facet normal 0.752671 -0.658397 0
    outer loop
      vertex 141.082 -1.99258 0
      vertex 125.774 -19.4922 11.1259
      vertex 125.774 -19.4922 0
    endloop
  endfacet
  facet normal 0.75267 -0.658398 0
    outer loop
      vertex 84.6669 46.858 11.3447
      vertex 92.5676 55.8901 0
      vertex 92.5676 55.8901 11.3447
    endloop
  endfacet
  facet normal 0.75267 -0.658398 0
    outer loop
      vertex 92.5676 55.8901 0
      vertex 84.6669 46.858 11.3447
      vertex 84.6669 46.858 0
    endloop
  endfacet
  facet normal -0.658397 -0.752671 0
    outer loop
      vertex 94.8256 53.9149 0
      vertex 92.5676 55.8901 11.3447
      vertex 92.5676 55.8901 0
    endloop
  endfacet
  facet normal -0.658397 -0.752671 0
    outer loop
      vertex 92.5676 55.8901 11.3447
      vertex 94.8256 53.9149 0
      vertex 94.8256 53.9149 12.0947
    endloop
  endfacet
  facet normal -0.75267 0.658398 0
    outer loop
      vertex 86.9249 44.8829 0
      vertex 94.8256 53.9149 12.0947
      vertex 94.8256 53.9149 0
    endloop
  endfacet
  facet normal -0.75267 0.658398 0
    outer loop
      vertex 94.8256 53.9149 12.0947
      vertex 86.9249 44.8829 0
      vertex 86.9249 44.8829 12.0947
    endloop
  endfacet
  facet normal 0.658397 0.752671 -0
    outer loop
      vertex 86.9249 44.8829 0
      vertex 84.6669 46.858 11.3447
      vertex 86.9249 44.8829 12.0947
    endloop
  endfacet
  facet normal 0.658397 0.752671 0
    outer loop
      vertex 84.6669 46.858 11.3447
      vertex 86.9249 44.8829 0
      vertex 84.6669 46.858 0
    endloop
  endfacet
  facet normal 0.752671 -0.658397 0
    outer loop
      vertex 87.2071 44.636 12.1884
      vertex 95.1079 53.668 0
      vertex 95.1079 53.668 12.1884
    endloop
  endfacet
  facet normal 0.752671 -0.658397 0
    outer loop
      vertex 95.1079 53.668 0
      vertex 87.2071 44.636 12.1884
      vertex 87.2071 44.636 0
    endloop
  endfacet
  facet normal -0.658397 -0.752671 0
    outer loop
      vertex 104.14 45.7672 0
      vertex 95.1079 53.668 12.1884
      vertex 95.1079 53.668 0
    endloop
  endfacet
  facet normal -0.658397 -0.752671 0
    outer loop
      vertex 95.1079 53.668 12.1884
      vertex 104.14 45.7672 0
      vertex 104.14 45.7672 15.1884
    endloop
  endfacet
  facet normal -0.75267 0.658398 0
    outer loop
      vertex 96.2392 36.7352 0
      vertex 104.14 45.7672 15.1884
      vertex 104.14 45.7672 0
    endloop
  endfacet
  facet normal -0.75267 0.658398 0
    outer loop
      vertex 104.14 45.7672 15.1884
      vertex 96.2392 36.7352 0
      vertex 96.2392 36.7352 15.1884
    endloop
  endfacet
  facet normal 0.658398 0.75267 -0
    outer loop
      vertex 96.2392 36.7352 0
      vertex 87.2071 44.636 12.1884
      vertex 96.2392 36.7352 15.1884
    endloop
  endfacet
  facet normal 0.658398 0.75267 0
    outer loop
      vertex 87.2071 44.636 12.1884
      vertex 96.2392 36.7352 0
      vertex 87.2071 44.636 0
    endloop
  endfacet
  facet normal 0.75267 -0.658398 0
    outer loop
      vertex 102.766 30.5274 11.5009
      vertex 108.34 36.8987 15.6787
      vertex 108.34 36.8987 17.4384
    endloop
  endfacet
  facet normal 0.75267 -0.658398 0
    outer loop
      vertex 108.34 36.8987 15.6787
      vertex 102.766 30.5274 11.5009
      vertex 108.34 36.8987 13.6172
    endloop
  endfacet
  facet normal 0.75267 -0.658398 -1.77913e-07
    outer loop
      vertex 94.9478 21.5894 17.4384
      vertex 102.766 30.5274 11.5009
      vertex 108.34 36.8987 17.4384
    endloop
  endfacet
  facet normal 0.75267 -0.658398 2.70149e-07
    outer loop
      vertex 102.766 30.5274 11.5009
      vertex 94.9478 21.5894 17.4384
      vertex 100.462 27.893 10.6259
    endloop
  endfacet
  facet normal 0.75267 -0.658398 0
    outer loop
      vertex 94.9478 21.5894 0
      vertex 100.462 27.893 10.6259
      vertex 94.9478 21.5894 17.4384
    endloop
  endfacet
  facet normal 0.75267 -0.658398 0
    outer loop
      vertex 100.462 27.893 10.6259
      vertex 94.9478 21.5894 0
      vertex 100.462 27.893 0
    endloop
  endfacet
  facet normal 0.75267 -0.658398 0
    outer loop
      vertex 108.34 36.8987 13.6172
      vertex 117.992 47.9329 0
      vertex 117.992 47.9329 17.2822
    endloop
  endfacet
  facet normal 0.75267 -0.658398 0
    outer loop
      vertex 102.766 30.5274 0
      vertex 108.34 36.8987 13.6172
      vertex 102.766 30.5274 11.5009
    endloop
  endfacet
  facet normal 0.75267 -0.658398 -4.36188e-08
    outer loop
      vertex 108.34 36.8987 13.6172
      vertex 102.766 30.5274 0
      vertex 117.992 47.9329 0
    endloop
  endfacet
  facet normal -0.658398 -0.75267 0
    outer loop
      vertex 117.992 47.9329 0
      vertex 136.809 31.4729 17.2822
      vertex 117.992 47.9329 17.2822
    endloop
  endfacet
  facet normal -0.658398 -0.75267 -0
    outer loop
      vertex 136.809 31.4729 17.2822
      vertex 117.992 47.9329 0
      vertex 136.809 31.4729 0
    endloop
  endfacet
  facet normal -0.75267 0.658398 0
    outer loop
      vertex 136.809 31.4729 0
      vertex 122.077 14.6319 11.6884
      vertex 136.809 31.4729 17.2822
    endloop
  endfacet
  facet normal -0.75267 0.658398 0
    outer loop
      vertex 121.665 14.1615 11.5322
      vertex 122.077 14.6319 13.75
      vertex 122.077 14.6319 11.6884
    endloop
  endfacet
  facet normal -0.75267 0.658398 3.90529e-08
    outer loop
      vertex 121.665 14.1615 0
      vertex 122.077 14.6319 11.6884
      vertex 136.809 31.4729 0
    endloop
  endfacet
  facet normal -0.75267 0.658398 0
    outer loop
      vertex 121.665 14.1615 11.5322
      vertex 122.077 14.6319 11.6884
      vertex 121.665 14.1615 0
    endloop
  endfacet
  facet normal -0.75267 0.658398 1.27282e-07
    outer loop
      vertex 113.765 5.12946 17.4384
      vertex 122.077 14.6319 13.75
      vertex 121.665 14.1615 11.5322
    endloop
  endfacet
  facet normal -0.75267 0.658398 -1.16007e-07
    outer loop
      vertex 113.765 5.12946 17.4384
      vertex 121.665 14.1615 11.5322
      vertex 113.765 5.12946 8.5322
    endloop
  endfacet
  facet normal -0.75267 0.658398 0
    outer loop
      vertex 122.077 14.6319 13.75
      vertex 113.765 5.12946 17.4384
      vertex 122.077 14.6319 17.4384
    endloop
  endfacet
  facet normal -0.683941 0.729537 0
    outer loop
      vertex 113.765 5.12946 17.4384
      vertex 113.765 5.12946 8.5322
      vertex 113.765 5.12946 0
    endloop
  endfacet
  facet normal 0.566529 0.824042 0
    outer loop
      vertex 113.765 5.12946 17.4384
      vertex 113.765 5.12946 8.53219
      vertex 113.765 5.12946 10.5937
    endloop
  endfacet
  facet normal 0.658398 0.75267 1.26024e-07
    outer loop
      vertex 113.765 5.12946 8.53219
      vertex 113.765 5.12946 0
      vertex 94.9478 21.5894 8.53219
    endloop
  endfacet
  facet normal 0.566529 0.824042 -0
    outer loop
      vertex 113.765 5.12946 0
      vertex 113.765 5.12946 8.53219
      vertex 113.765 5.12946 17.4384
    endloop
  endfacet
  facet normal 0.447214 0.894427 -0
    outer loop
      vertex 94.9478 21.5894 8.53219
      vertex 94.9478 21.5894 17.4384
      vertex 94.9478 21.5894 10.5937
    endloop
  endfacet
  facet normal 0.447214 0.894427 0
    outer loop
      vertex 94.9478 21.5894 8.53219
      vertex 94.9478 21.5894 0
      vertex 94.9478 21.5894 17.4384
    endloop
  endfacet
  facet normal 0.658397 0.75267 -2.52217e-07
    outer loop
      vertex 94.9478 21.5894 0
      vertex 94.9478 21.5894 8.53219
      vertex 113.765 5.12946 0
    endloop
  endfacet
  facet normal 0.75267 -0.658397 0
    outer loop
      vertex 76.6015 37.6378 11.3447
      vertex 84.42 46.5758 0
      vertex 84.42 46.5758 11.3447
    endloop
  endfacet
  facet normal 0.75267 -0.658397 0
    outer loop
      vertex 84.42 46.5758 0
      vertex 76.6015 37.6378 11.3447
      vertex 76.6015 37.6378 0
    endloop
  endfacet
  facet normal -0.658398 -0.75267 0
    outer loop
      vertex 93.452 38.675 0
      vertex 84.42 46.5758 11.3447
      vertex 84.42 46.5758 0
    endloop
  endfacet
  facet normal -0.658398 -0.75267 0
    outer loop
      vertex 84.42 46.5758 11.3447
      vertex 93.452 38.675 0
      vertex 93.452 38.675 14.3447
    endloop
  endfacet
  facet normal -0.75267 0.658397 0
    outer loop
      vertex 85.6335 29.7371 0
      vertex 93.452 38.675 14.3447
      vertex 93.452 38.675 0
    endloop
  endfacet
  facet normal -0.75267 0.658397 0
    outer loop
      vertex 93.452 38.675 14.3447
      vertex 85.6335 29.7371 0
      vertex 85.6335 29.7371 14.3447
    endloop
  endfacet
  facet normal 0.658398 0.75267 -2.49301e-07
    outer loop
      vertex 82.6228 32.3707 6.66667
      vertex 85.6335 29.7371 14.3447
      vertex 84.8809 30.3955 6.66667
    endloop
  endfacet
  facet normal 0.658397 0.752671 -0
    outer loop
      vertex 85.6335 29.7371 0
      vertex 84.8809 30.3955 6.66667
      vertex 85.6335 29.7371 14.3447
    endloop
  endfacet
  facet normal 0.658397 0.752671 0
    outer loop
      vertex 84.8809 30.3955 6.66667
      vertex 85.6335 29.7371 0
      vertex 84.8809 30.3955 0
    endloop
  endfacet
  facet normal 0.658398 0.75267 0
    outer loop
      vertex 85.6335 29.7371 14.3447
      vertex 82.6228 32.3707 6.66667
      vertex 76.6015 37.6378 11.3447
    endloop
  endfacet
  facet normal 0.658398 0.75267 0
    outer loop
      vertex 76.6015 37.6378 0
      vertex 82.6228 32.3707 6.66667
      vertex 82.6228 32.3707 0
    endloop
  endfacet
  facet normal 0.658398 0.75267 0
    outer loop
      vertex 82.6228 32.3707 6.66667
      vertex 76.6015 37.6378 0
      vertex 76.6015 37.6378 11.3447
    endloop
  endfacet
  facet normal 0.75267 -0.658398 0
    outer loop
      vertex 96.5214 36.4883 15.2822
      vertex 104.422 45.5203 0
      vertex 104.422 45.5203 15.2822
    endloop
  endfacet
  facet normal 0.75267 -0.658398 0
    outer loop
      vertex 104.422 45.5203 0
      vertex 96.5214 36.4883 15.2822
      vertex 96.5214 36.4883 0
    endloop
  endfacet
  facet normal -0.658398 -0.75267 0
    outer loop
      vertex 110.444 40.2532 0
      vertex 104.422 45.5203 15.2822
      vertex 104.422 45.5203 0
    endloop
  endfacet
  facet normal -0.658398 -0.75267 0
    outer loop
      vertex 104.422 45.5203 15.2822
      vertex 110.444 40.2532 0
      vertex 110.444 40.2532 17.2822
    endloop
  endfacet
  facet normal -0.75267 0.658398 0
    outer loop
      vertex 102.543 31.2211 0
      vertex 110.444 40.2532 17.2822
      vertex 110.444 40.2532 0
    endloop
  endfacet
  facet normal -0.75267 0.658398 0
    outer loop
      vertex 110.444 40.2532 17.2822
      vertex 102.543 31.2211 0
      vertex 102.543 31.2211 17.2822
    endloop
  endfacet
  facet normal 0.658398 0.75267 -0
    outer loop
      vertex 102.543 31.2211 0
      vertex 96.5214 36.4883 15.2822
      vertex 102.543 31.2211 17.2822
    endloop
  endfacet
  facet normal 0.658398 0.75267 0
    outer loop
      vertex 96.5214 36.4883 15.2822
      vertex 102.543 31.2211 0
      vertex 96.5214 36.4883 0
    endloop
  endfacet
  facet normal 0.75267 -0.658398 0
    outer loop
      vertex 47.2178 22.6527 8.2822
      vertex 66.9698 45.2328 0
      vertex 66.9698 45.2328 8.2822
    endloop
  endfacet
  facet normal 0.75267 -0.658398 0
    outer loop
      vertex 66.9698 45.2328 0
      vertex 47.2178 22.6527 8.2822
      vertex 47.2178 22.6527 0
    endloop
  endfacet
  facet normal -0.658398 -0.75267 0
    outer loop
      vertex 84.4694 29.925 0
      vertex 86.257 28.3614 6.66667
      vertex 84.4694 29.925 6.66667
    endloop
  endfacet
  facet normal -0.658398 -0.75267 -0
    outer loop
      vertex 86.257 28.3614 6.66667
      vertex 84.4694 29.925 0
      vertex 86.257 28.3614 0
    endloop
  endfacet
  facet normal -0.658397 -0.752671 0
    outer loop
      vertex 66.9698 45.2328 0
      vertex 82.2113 31.9002 6.66667
      vertex 66.9698 45.2328 8.2822
    endloop
  endfacet
  facet normal -0.658397 -0.752671 -0
    outer loop
      vertex 82.2113 31.9002 6.66667
      vertex 66.9698 45.2328 0
      vertex 82.2113 31.9002 0
    endloop
  endfacet
  facet normal -0.658397 -0.752671 -1.61123e-07
    outer loop
      vertex 82.2113 31.9002 6.66667
      vertex 94.0659 21.5305 17.2822
      vertex 66.9698 45.2328 8.2822
    endloop
  endfacet
  facet normal -0.658398 -0.75267 3.71968e-07
    outer loop
      vertex 84.4694 29.925 6.66667
      vertex 94.0659 21.5305 17.2822
      vertex 82.2113 31.9002 6.66667
    endloop
  endfacet
  facet normal -0.658398 -0.75267 8.25539e-07
    outer loop
      vertex 86.257 28.3614 6.66667
      vertex 94.0659 21.5305 17.2822
      vertex 84.4694 29.925 6.66667
    endloop
  endfacet
  facet normal -0.658397 -0.752671 -1.12357e-08
    outer loop
      vertex 88.515 26.3862 6.66667
      vertex 94.0659 21.5305 17.2822
      vertex 86.257 28.3614 6.66667
    endloop
  endfacet
  facet normal -0.658397 -0.752671 0
    outer loop
      vertex 94.0659 21.5305 0
      vertex 88.515 26.3862 6.66667
      vertex 88.515 26.3862 0
    endloop
  endfacet
  facet normal -0.658397 -0.752671 0
    outer loop
      vertex 88.515 26.3862 6.66667
      vertex 94.0659 21.5305 0
      vertex 94.0659 21.5305 17.2822
    endloop
  endfacet
  facet normal -0.75267 0.658398 0
    outer loop
      vertex 74.314 -1.04962 0
      vertex 94.0659 21.5305 17.2822
      vertex 94.0659 21.5305 0
    endloop
  endfacet
  facet normal -0.75267 0.658398 0
    outer loop
      vertex 94.0659 21.5305 17.2822
      vertex 74.314 -1.04962 0
      vertex 74.314 -1.04962 17.2822
    endloop
  endfacet
  facet normal 0.658398 0.75267 -0
    outer loop
      vertex 65.2819 6.85114 0
      vertex 62.2713 9.48473 7
      vertex 65.2819 6.85114 7
    endloop
  endfacet
  facet normal 0.658398 0.75267 0
    outer loop
      vertex 62.2713 9.48473 7
      vertex 65.2819 6.85114 0
      vertex 62.2713 9.48473 0
    endloop
  endfacet
  facet normal 0.658398 0.75267 -1.97796e-07
    outer loop
      vertex 65.2819 6.85114 7
      vertex 74.314 -1.04962 17.2822
      vertex 72.056 0.925568 7
    endloop
  endfacet
  facet normal 0.658397 0.752671 -0
    outer loop
      vertex 74.314 -1.04962 0
      vertex 72.056 0.925568 7
      vertex 74.314 -1.04962 17.2822
    endloop
  endfacet
  facet normal 0.658397 0.752671 0
    outer loop
      vertex 72.056 0.925568 7
      vertex 74.314 -1.04962 0
      vertex 72.056 0.925568 0
    endloop
  endfacet
  facet normal 0.658398 0.75267 -2.09431e-07
    outer loop
      vertex 62.2713 9.48473 7
      vertex 74.314 -1.04962 17.2822
      vertex 65.2819 6.85114 7
    endloop
  endfacet
  facet normal 0.658397 0.75267 1.26955e-08
    outer loop
      vertex 74.314 -1.04962 17.2822
      vertex 62.2713 9.48473 7
      vertex 47.2178 22.6527 8.2822
    endloop
  endfacet
  facet normal 0.658397 0.752671 -9.09007e-07
    outer loop
      vertex 50.2285 20.0191 7
      vertex 47.2178 22.6527 8.2822
      vertex 62.2713 9.48473 7
    endloop
  endfacet
  facet normal 0.658398 0.75267 0
    outer loop
      vertex 47.2178 22.6527 0
      vertex 50.2285 20.0191 7
      vertex 50.2285 20.0191 0
    endloop
  endfacet
  facet normal 0.658398 0.75267 0
    outer loop
      vertex 50.2285 20.0191 7
      vertex 47.2178 22.6527 0
      vertex 47.2178 22.6527 8.2822
    endloop
  endfacet
  facet normal 0.752669 -0.6584 0
    outer loop
      vertex 91.4299 35.7938 14.4384
      vertex 93.7343 38.4281 0
      vertex 93.7343 38.4281 14.4384
    endloop
  endfacet
  facet normal 0.752669 -0.6584 0
    outer loop
      vertex 93.7343 38.4281 0
      vertex 91.4299 35.7938 14.4384
      vertex 91.4299 35.7938 0
    endloop
  endfacet
  facet normal -0.658398 -0.75267 0
    outer loop
      vertex 93.7343 38.4281 0
      vertex 102.233 30.9937 11.5009
      vertex 93.7343 38.4281 14.4384
    endloop
  endfacet
  facet normal -0.658398 -0.75267 -0
    outer loop
      vertex 102.233 30.9937 11.5009
      vertex 93.7343 38.4281 0
      vertex 102.233 30.9937 0
    endloop
  endfacet
  facet normal -0.658398 -0.75267 3.19094e-07
    outer loop
      vertex 102.233 30.9937 11.5009
      vertex 102.296 30.9389 17.2822
      vertex 93.7343 38.4281 14.4384
    endloop
  endfacet
  facet normal -0.658381 -0.752684 -0
    outer loop
      vertex 102.296 30.9389 17.2822
      vertex 102.233 30.9937 11.5009
      vertex 102.296 30.9389 11.5009
    endloop
  endfacet
  facet normal -0.75267 0.658397 1.88664e-07
    outer loop
      vertex 99.9915 28.3045 17.2822
      vertex 102.296 30.9389 11.5009
      vertex 99.9915 28.3045 10.6259
    endloop
  endfacet
  facet normal -0.752671 0.658397 0
    outer loop
      vertex 102.296 30.9389 11.5009
      vertex 99.9915 28.3045 17.2822
      vertex 102.296 30.9389 17.2822
    endloop
  endfacet
  facet normal -1 0 0
    outer loop
      vertex 99.9915 28.3045 17.2822
      vertex 99.9915 28.3045 10.6259
      vertex 99.9915 28.3045 0
    endloop
  endfacet
  facet normal 0.658397 0.752671 -9.01576e-08
    outer loop
      vertex 96.9808 30.9381 6.66667
      vertex 99.9915 28.3045 17.2822
      vertex 99.2388 28.9629 6.66667
    endloop
  endfacet
  facet normal 0.658397 0.752671 -0
    outer loop
      vertex 99.9915 28.3045 0
      vertex 99.2388 28.9629 6.66667
      vertex 99.9915 28.3045 17.2822
    endloop
  endfacet
  facet normal 0.658397 0.752671 0
    outer loop
      vertex 99.2388 28.9629 6.66667
      vertex 99.9915 28.3045 0
      vertex 99.2388 28.9629 0
    endloop
  endfacet
  facet normal 0.658397 0.75267 -1.477e-07
    outer loop
      vertex 99.9915 28.3045 17.2822
      vertex 96.9808 30.9381 6.66667
      vertex 91.4299 35.7938 14.4384
    endloop
  endfacet
  facet normal 0.658398 0.75267 0
    outer loop
      vertex 91.4299 35.7938 0
      vertex 96.9808 30.9381 6.66667
      vertex 96.9808 30.9381 0
    endloop
  endfacet
  facet normal 0.658398 0.75267 0
    outer loop
      vertex 96.9808 30.9381 6.66667
      vertex 91.4299 35.7938 0
      vertex 91.4299 35.7938 14.4384
    endloop
  endfacet
  facet normal 0.75267 -0.658398 0
    outer loop
      vertex 85.9158 29.4902 14.4384
      vertex 91.183 35.5115 0
      vertex 91.183 35.5115 14.4384
    endloop
  endfacet
  facet normal 0.75267 -0.658398 0
    outer loop
      vertex 91.183 35.5115 0
      vertex 85.9158 29.4902 14.4384
      vertex 85.9158 29.4902 0
    endloop
  endfacet
  facet normal -0.658397 -0.752671 0
    outer loop
      vertex 91.183 35.5115 0
      vertex 96.7339 30.6559 6.66667
      vertex 91.183 35.5115 14.4384
    endloop
  endfacet
  facet normal -0.658397 -0.752671 -0
    outer loop
      vertex 96.7339 30.6559 6.66667
      vertex 91.183 35.5115 0
      vertex 96.7339 30.6559 0
    endloop
  endfacet
  facet normal -0.658397 -0.752671 -1.60105e-09
    outer loop
      vertex 96.7339 30.6559 6.66667
      vertex 99.7446 28.0223 17.2822
      vertex 91.183 35.5115 14.4384
    endloop
  endfacet
  facet normal -0.658398 -0.75267 1.35236e-07
    outer loop
      vertex 98.9919 28.6807 6.66667
      vertex 99.7446 28.0223 17.2822
      vertex 96.7339 30.6559 6.66667
    endloop
  endfacet
  facet normal -0.658397 -0.752671 0
    outer loop
      vertex 99.7446 28.0223 0
      vertex 98.9919 28.6807 6.66667
      vertex 98.9919 28.6807 0
    endloop
  endfacet
  facet normal -0.658397 -0.752671 0
    outer loop
      vertex 98.9919 28.6807 6.66667
      vertex 99.7446 28.0223 0
      vertex 99.7446 28.0223 17.2822
    endloop
  endfacet
  facet normal -0.75267 0.658398 0
    outer loop
      vertex 94.4774 22.0009 0
      vertex 99.7446 28.0223 17.2822
      vertex 99.7446 28.0223 0
    endloop
  endfacet
  facet normal -0.75267 0.658398 0
    outer loop
      vertex 99.7446 28.0223 17.2822
      vertex 94.4774 22.0009 0
      vertex 94.4774 22.0009 17.2822
    endloop
  endfacet
  facet normal 0.658397 0.752671 7.99112e-08
    outer loop
      vertex 94.4774 22.0009 17.2822
      vertex 88.9265 26.8566 6.66667
      vertex 85.9158 29.4902 14.4384
    endloop
  endfacet
  facet normal 0.658397 0.75267 -0
    outer loop
      vertex 94.4774 22.0009 0
      vertex 88.9265 26.8566 6.66667
      vertex 94.4774 22.0009 17.2822
    endloop
  endfacet
  facet normal 0.658397 0.75267 0
    outer loop
      vertex 88.9265 26.8566 6.66667
      vertex 94.4774 22.0009 0
      vertex 88.9265 26.8566 0
    endloop
  endfacet
  facet normal 0.658398 0.75267 2.76895e-07
    outer loop
      vertex 86.6684 28.8318 6.66667
      vertex 85.9158 29.4902 14.4384
      vertex 88.9265 26.8566 6.66667
    endloop
  endfacet
  facet normal 0.658396 0.752672 0
    outer loop
      vertex 85.9158 29.4902 0
      vertex 86.6684 28.8318 6.66667
      vertex 86.6684 28.8318 0
    endloop
  endfacet
  facet normal 0.658396 0.752672 0
    outer loop
      vertex 86.6684 28.8318 6.66667
      vertex 85.9158 29.4902 0
      vertex 85.9158 29.4902 14.4384
    endloop
  endfacet
  facet normal 0.75267 -0.658398 0
    outer loop
      vertex 114.235 4.71796 17.2822
      vertex 122.136 13.75 11.5322
      vertex 122.136 13.75 17.2822
    endloop
  endfacet
  facet normal 0.75267 -0.658398 -1.3308e-07
    outer loop
      vertex 122.136 13.75 11.5322
      vertex 114.235 4.71796 17.2822
      vertex 114.235 4.71797 8.5322
    endloop
  endfacet
  facet normal 0.808736 -0.588172 0
    outer loop
      vertex 114.235 4.71796 0
      vertex 114.235 4.71797 8.5322
      vertex 114.235 4.71796 17.2822
    endloop
  endfacet
  facet normal 0.808736 -0.588172 0
    outer loop
      vertex 114.235 4.71797 8.5322
      vertex 114.235 4.71796 0
      vertex 114.235 4.71797 0
    endloop
  endfacet
  facet normal -0.658381 -0.752684 0
    outer loop
      vertex 122.198 13.6951 11.5322
      vertex 122.136 13.75 17.2822
      vertex 122.136 13.75 11.5322
    endloop
  endfacet
  facet normal -0.658396 -0.752671 -2.88208e-07
    outer loop
      vertex 122.136 13.75 17.2822
      vertex 122.198 13.6951 11.5322
      vertex 125.899 10.458 16.0322
    endloop
  endfacet
  facet normal -0.658397 -0.752671 0
    outer loop
      vertex 125.899 10.458 0
      vertex 122.198 13.6951 11.5322
      vertex 122.198 13.6951 0
    endloop
  endfacet
  facet normal -0.658397 -0.752671 0
    outer loop
      vertex 122.198 13.6951 11.5322
      vertex 125.899 10.458 0
      vertex 125.899 10.458 16.0322
    endloop
  endfacet
  facet normal -0.752671 0.658397 0
    outer loop
      vertex 120.303 4.06032 0
      vertex 125.899 10.458 16.0322
      vertex 125.899 10.458 0
    endloop
  endfacet
  facet normal -0.752671 0.658397 0
    outer loop
      vertex 125.899 10.458 16.0322
      vertex 120.303 4.06032 0
      vertex 120.303 4.06032 16.0322
    endloop
  endfacet
  facet normal -0.658396 -0.752672 5.93228e-08
    outer loop
      vertex 120.303 4.06032 16.0322
      vertex 123.157 1.5639 6.66667
      vertex 125.289 -0.301544 14.3759
    endloop
  endfacet
  facet normal -0.658396 -0.752671 0
    outer loop
      vertex 120.303 4.06032 0
      vertex 123.157 1.5639 6.66667
      vertex 120.303 4.06032 16.0322
    endloop
  endfacet
  facet normal -0.658396 -0.752671 -0
    outer loop
      vertex 123.157 1.5639 6.66667
      vertex 120.303 4.06032 0
      vertex 123.157 1.5639 0
    endloop
  endfacet
  facet normal -0.658396 -0.752672 7.92573e-08
    outer loop
      vertex 124.913 0.0276459 6.66667
      vertex 125.289 -0.301544 14.3759
      vertex 123.157 1.5639 6.66667
    endloop
  endfacet
  facet normal -0.658395 -0.752672 0
    outer loop
      vertex 125.289 -0.301544 0
      vertex 124.913 0.0276459 6.66667
      vertex 124.913 0.0276459 0
    endloop
  endfacet
  facet normal -0.658395 -0.752672 0
    outer loop
      vertex 124.913 0.0276459 6.66667
      vertex 125.289 -0.301544 0
      vertex 125.289 -0.301544 14.3759
    endloop
  endfacet
  facet normal -0.752668 0.6584 0
    outer loop
      vertex 123.259 -2.62228 0
      vertex 122.985 -2.9359 0
      vertex 123.259 -2.62228 6.66667
    endloop
  endfacet
  facet normal -0.752667 0.658401 0
    outer loop
      vertex 125.015 -0.61516 6.66667
      vertex 125.289 -0.301544 0
      vertex 125.015 -0.61516 0
    endloop
  endfacet
  facet normal -0.752667 0.658401 0
    outer loop
      vertex 125.289 -0.301544 0
      vertex 125.015 -0.61516 6.66667
      vertex 125.289 -0.301544 14.3759
    endloop
  endfacet
  facet normal -0.75267 0.658398 2.21894e-07
    outer loop
      vertex 125.015 -0.61516 6.66667
      vertex 123.413 -2.44618 14.3759
      vertex 125.289 -0.301544 14.3759
    endloop
  endfacet
  facet normal -0.752671 0.658397 -3.02512e-07
    outer loop
      vertex 123.259 -2.62228 6.66667
      vertex 123.413 -2.44618 14.3759
      vertex 125.015 -0.61516 6.66667
    endloop
  endfacet
  facet normal -0.752668 0.6584 0
    outer loop
      vertex 122.985 -2.9359 14.3759
      vertex 123.259 -2.62228 6.66667
      vertex 122.985 -2.9359 0
    endloop
  endfacet
  facet normal -0.752671 0.658396 -2.93007e-07
    outer loop
      vertex 123.259 -2.62228 6.66667
      vertex 122.985 -2.9359 14.3759
      vertex 123.413 -2.44618 14.3759
    endloop
  endfacet
  facet normal 0.658397 0.752671 -0
    outer loop
      vertex 122.985 -2.9359 0
      vertex 117.246 2.08437 6.66667
      vertex 122.985 -2.9359 14.3759
    endloop
  endfacet
  facet normal 0.658397 0.752671 0
    outer loop
      vertex 117.246 2.08437 6.66667
      vertex 122.985 -2.9359 0
      vertex 117.246 2.08437 0
    endloop
  endfacet
  facet normal 0.658397 0.752671 5.43742e-07
    outer loop
      vertex 117.246 2.08437 6.66667
      vertex 122.459 -2.47608 14.5505
      vertex 122.985 -2.9359 14.3759
    endloop
  endfacet
  facet normal 0.658397 0.752671 6.12497e-08
    outer loop
      vertex 117.246 2.08437 6.66667
      vertex 114.235 4.71796 17.2822
      vertex 122.459 -2.47608 14.5505
    endloop
  endfacet
  facet normal 0.658397 0.752671 1.91585e-07
    outer loop
      vertex 114.988 4.05956 6.66667
      vertex 114.235 4.71796 17.2822
      vertex 117.246 2.08437 6.66667
    endloop
  endfacet
  facet normal 0.658396 0.752672 0
    outer loop
      vertex 114.235 4.71796 0
      vertex 114.988 4.05956 6.66667
      vertex 114.988 4.05956 0
    endloop
  endfacet
  facet normal 0.658396 0.752672 0
    outer loop
      vertex 114.988 4.05956 6.66667
      vertex 114.235 4.71796 0
      vertex 114.235 4.71796 17.2822
    endloop
  endfacet
  facet normal 0.752671 -0.658397 0
    outer loop
      vertex 120.832 4.09567 15.9384
      vertex 126.181 10.2111 0
      vertex 126.181 10.2111 15.9384
    endloop
  endfacet
  facet normal 0.752671 -0.658397 0
    outer loop
      vertex 126.181 10.2111 0
      vertex 120.832 4.09567 15.9384
      vertex 120.832 4.09567 0
    endloop
  endfacet
  facet normal -0.658398 -0.75267 0
    outer loop
      vertex 126.181 10.2111 0
      vertex 130.886 6.09613 14.3759
      vertex 126.181 10.2111 15.9384
    endloop
  endfacet
  facet normal -0.658398 -0.75267 -0
    outer loop
      vertex 130.886 6.09613 14.3759
      vertex 126.181 10.2111 0
      vertex 130.886 6.09613 0
    endloop
  endfacet
  facet normal -0.75267 0.658398 0
    outer loop
      vertex 125.536 -0.0193024 0
      vertex 130.886 6.09613 14.3759
      vertex 130.886 6.09613 0
    endloop
  endfacet
  facet normal -0.75267 0.658398 0
    outer loop
      vertex 130.886 6.09613 14.3759
      vertex 125.536 -0.0193024 0
      vertex 125.536 -0.0193024 14.3759
    endloop
  endfacet
  facet normal 0.658394 0.752673 -0
    outer loop
      vertex 125.536 -0.0193024 0
      vertex 125.16 0.309893 6.66667
      vertex 125.536 -0.0193024 14.3759
    endloop
  endfacet
  facet normal 0.658394 0.752673 0
    outer loop
      vertex 125.16 0.309893 6.66667
      vertex 125.536 -0.0193024 0
      vertex 125.16 0.309893 0
    endloop
  endfacet
  facet normal 0.658396 0.752671 -1.92882e-07
    outer loop
      vertex 123.404 1.84615 6.66667
      vertex 125.536 -0.0193024 14.3759
      vertex 125.16 0.309893 6.66667
    endloop
  endfacet
  facet normal 0.658396 0.752671 -1.85595e-07
    outer loop
      vertex 125.536 -0.0193024 14.3759
      vertex 123.404 1.84615 6.66667
      vertex 120.832 4.09567 15.9384
    endloop
  endfacet
  facet normal 0.658397 0.752671 0
    outer loop
      vertex 120.832 4.09567 0
      vertex 123.404 1.84615 6.66667
      vertex 123.404 1.84615 0
    endloop
  endfacet
  facet normal 0.658397 0.752671 0
    outer loop
      vertex 123.404 1.84615 6.66667
      vertex 120.832 4.09567 0
      vertex 120.832 4.09567 15.9384
    endloop
  endfacet
  facet normal 0.75267 -0.658398 0
    outer loop
      vertex 131.168 5.84923 14.2822
      vertex 125.297 -0.862066 6.66667
      vertex 131.168 5.84923 0
    endloop
  endfacet
  facet normal 0.75267 -0.658398 1.09445e-07
    outer loop
      vertex 123.925 -2.43013 14.2822
      vertex 125.297 -0.862066 6.66667
      vertex 131.168 5.84923 14.2822
    endloop
  endfacet
  facet normal 0.752669 -0.658399 -4.76749e-08
    outer loop
      vertex 123.925 -2.43013 14.2822
      vertex 123.541 -2.86918 6.66667
      vertex 125.297 -0.862066 6.66667
    endloop
  endfacet
  facet normal 0.752668 -0.6584 1.17646e-07
    outer loop
      vertex 123.267 -3.1828 14.2822
      vertex 123.541 -2.86918 6.66667
      vertex 123.925 -2.43013 14.2822
    endloop
  endfacet
  facet normal 0.752667 -0.658402 0
    outer loop
      vertex 123.267 -3.1828 0
      vertex 123.541 -2.86918 6.66667
      vertex 123.267 -3.1828 14.2822
    endloop
  endfacet
  facet normal 0.752667 -0.658402 0
    outer loop
      vertex 123.541 -2.86918 6.66667
      vertex 123.267 -3.1828 0
      vertex 123.541 -2.86918 0
    endloop
  endfacet
  facet normal 0.75267 -0.658398 0
    outer loop
      vertex 131.168 5.84923 0
      vertex 125.297 -0.862066 6.66667
      vertex 125.297 -0.862066 0
    endloop
  endfacet
  facet normal -0.658396 -0.752672 0
    outer loop
      vertex 131.168 5.84923 0
      vertex 140.055 -1.92468 11.3304
      vertex 131.168 5.84923 14.2822
    endloop
  endfacet
  facet normal -0.658396 -0.752672 3.18661e-07
    outer loop
      vertex 140.2 -2.05151 0
      vertex 140.055 -1.92468 11.3304
      vertex 131.168 5.84923 0
    endloop
  endfacet
  facet normal -0.65841 -0.752659 0
    outer loop
      vertex 140.055 -1.92468 11.3304
      vertex 140.2 -2.05151 0
      vertex 140.2 -2.05151 11.2822
    endloop
  endfacet
  facet normal -0.75267 0.658398 0
    outer loop
      vertex 132.299 -11.0836 0
      vertex 140.2 -2.05151 11.2822
      vertex 140.2 -2.05151 0
    endloop
  endfacet
  facet normal -0.75267 0.658398 0
    outer loop
      vertex 140.2 -2.05151 11.2822
      vertex 132.299 -11.0836 0
      vertex 132.299 -11.0836 11.2822
    endloop
  endfacet
  facet normal 0.658397 0.752671 0
    outer loop
      vertex 123.267 -3.1828 0
      vertex 132.299 -11.0836 11.2822
      vertex 132.299 -11.0836 0
    endloop
  endfacet
  facet normal 0.658397 0.752671 0
    outer loop
      vertex 132.299 -11.0836 11.2822
      vertex 123.267 -3.1828 0
      vertex 123.267 -3.1828 14.2822
    endloop
  endfacet
  facet normal 0.752669 -0.658399 0
    outer loop
      vertex 115.217 -2.70303 15.8759
      vertex 118.222 0.732224 0
      vertex 118.222 0.732224 15.8759
    endloop
  endfacet
  facet normal 0.752669 -0.658399 0
    outer loop
      vertex 111.885 -6.51221 0
      vertex 115.217 -2.70303 15.8759
      vertex 111.885 -6.51221 15.8759
    endloop
  endfacet
  facet normal 0.752669 -0.658399 -2.15065e-08
    outer loop
      vertex 115.217 -2.70303 15.8759
      vertex 111.885 -6.51221 0
      vertex 118.222 0.732224 0
    endloop
  endfacet
  facet normal -0.658396 -0.752672 0
    outer loop
      vertex 118.222 0.732224 0
      vertex 121.909 -2.49331 14.6512
      vertex 118.222 0.732224 15.8759
    endloop
  endfacet
  facet normal -0.658394 -0.752673 -7.67962e-07
    outer loop
      vertex 118.222 0.732224 0
      vertex 122.738 -3.21814 14.3759
      vertex 121.909 -2.49331 14.6512
    endloop
  endfacet
  facet normal -0.658395 -0.752672 -0
    outer loop
      vertex 122.738 -3.21814 14.3759
      vertex 118.222 0.732224 0
      vertex 122.738 -3.21814 0
    endloop
  endfacet
  facet normal -0.75267 0.658397 0
    outer loop
      vertex 116.401 -10.4626 0
      vertex 122.738 -3.21814 14.3759
      vertex 122.738 -3.21814 0
    endloop
  endfacet
  facet normal -0.75267 0.658397 0
    outer loop
      vertex 122.738 -3.21814 14.3759
      vertex 116.401 -10.4626 0
      vertex 116.401 -10.4626 14.3759
    endloop
  endfacet
  facet normal 0.658398 0.75267 0
    outer loop
      vertex 111.885 -6.51221 0
      vertex 116.401 -10.4626 14.3759
      vertex 116.401 -10.4626 0
    endloop
  endfacet
  facet normal 0.658398 0.75267 0
    outer loop
      vertex 116.401 -10.4626 14.3759
      vertex 111.885 -6.51221 0
      vertex 111.885 -6.51221 15.8759
    endloop
  endfacet
  facet normal 0.752671 -0.658397 0
    outer loop
      vertex 116.683 -10.7095 14.2822
      vertex 123.02 -3.46504 0
      vertex 123.02 -3.46504 14.2822
    endloop
  endfacet
  facet normal 0.752671 -0.658397 0
    outer loop
      vertex 123.02 -3.46504 0
      vertex 116.683 -10.7095 14.2822
      vertex 116.683 -10.7095 0
    endloop
  endfacet
  facet normal -0.658398 -0.75267 0
    outer loop
      vertex 123.02 -3.46504 0
      vertex 132.052 -11.3658 11.2822
      vertex 123.02 -3.46504 14.2822
    endloop
  endfacet
  facet normal -0.658398 -0.75267 -0
    outer loop
      vertex 132.052 -11.3658 11.2822
      vertex 123.02 -3.46504 0
      vertex 132.052 -11.3658 0
    endloop
  endfacet
  facet normal -0.752671 0.658397 0
    outer loop
      vertex 125.715 -18.6103 0
      vertex 132.052 -11.3658 11.2822
      vertex 132.052 -11.3658 0
    endloop
  endfacet
  facet normal -0.752671 0.658397 0
    outer loop
      vertex 132.052 -11.3658 11.2822
      vertex 125.715 -18.6103 0
      vertex 125.715 -18.6103 11.2822
    endloop
  endfacet
  facet normal 0.658398 0.75267 0
    outer loop
      vertex 116.683 -10.7095 0
      vertex 125.715 -18.6103 11.2822
      vertex 125.715 -18.6103 0
    endloop
  endfacet
  facet normal 0.658398 0.75267 0
    outer loop
      vertex 125.715 -18.6103 11.2822
      vertex 116.683 -10.7095 0
      vertex 116.683 -10.7095 14.2822
    endloop
  endfacet
  facet normal 0.182549 -0.159685 -0.970142
    outer loop
      vertex 114.148 40.5006 17.9384
      vertex 111.325 40.3121 17.4384
      vertex 112.263 42.1491 17.3125
    endloop
  endfacet
  facet normal 0.182549 -0.159685 -0.970143
    outer loop
      vertex 114.148 40.5006 17.9384
      vertex 108.34 36.8987 17.4384
      vertex 111.325 40.3121 17.4384
    endloop
  endfacet
  facet normal 0.182549 -0.159685 -0.970143
    outer loop
      vertex 114.148 40.5006 17.9384
      vertex 94.9478 21.5894 17.4384
      vertex 108.34 36.8987 17.4384
    endloop
  endfacet
  facet normal 0.182555 -0.159691 -0.97014
    outer loop
      vertex 114.148 40.5006 17.9384
      vertex 94.5363 21.119 17.4384
      vertex 94.9478 21.5894 17.4384
    endloop
  endfacet
  facet normal 0.182549 -0.159685 -0.970142
    outer loop
      vertex 74.5614 -4.75368 17.9384
      vertex 94.5363 21.119 17.4384
      vertex 114.148 40.5006 17.9384
    endloop
  endfacet
  facet normal 0.18255 -0.159685 -0.970142
    outer loop
      vertex 74.3729 -1.93153 17.4384
      vertex 94.5363 21.119 17.4384
      vertex 74.5614 -4.75368 17.9384
    endloop
  endfacet
  facet normal 0.182549 -0.159685 -0.970142
    outer loop
      vertex 74.5614 -4.75368 17.9384
      vertex 46.3359 22.5938 8.12595
      vertex 74.3729 -1.93153 17.4384
    endloop
  endfacet
  facet normal 0.18255 -0.159685 -0.970142
    outer loop
      vertex 46.3359 22.5938 8.12595
      vertex 74.5614 -4.75368 17.9384
      vertex 43.5138 22.4052 7.62595
    endloop
  endfacet
  facet normal 0.182551 -0.159686 -0.970142
    outer loop
      vertex 110.855 40.7236 17.2822
      vertex 112.263 42.1491 17.3125
      vertex 111.325 40.3121 17.4384
    endloop
  endfacet
  facet normal 0.182549 -0.159685 -0.970143
    outer loop
      vertex 110.855 40.7236 17.2822
      vertex 109.441 41.9606 16.8125
      vertex 112.263 42.1491 17.3125
    endloop
  endfacet
  facet normal 0.0964082 -0.255102 -0.962096
    outer loop
      vertex 110.855 40.7236 17.2822
      vertex 109.35 42.0404 16.7822
      vertex 109.441 41.9606 16.8125
    endloop
  endfacet
  facet normal 0.272956 -0.0527031 -0.960582
    outer loop
      vertex 109.35 42.0404 16.7822
      vertex 110.855 40.7236 17.2822
      vertex 92.5087 56.772 11.1884
    endloop
  endfacet
  facet normal 0.182549 -0.159685 -0.970142
    outer loop
      vertex 92.5087 56.772 11.1884
      vertex 110.667 43.5457 16.7822
      vertex 109.35 42.0404 16.7822
    endloop
  endfacet
  facet normal 0.18255 -0.159684 -0.970142
    outer loop
      vertex 92.5087 56.772 11.1884
      vertex 83.1 67.6595 7.62595
      vertex 110.667 43.5457 16.7822
    endloop
  endfacet
  facet normal 0.182549 -0.159685 -0.970143
    outer loop
      vertex 66.9108 46.1147 8.12595
      vertex 92.5087 56.772 11.1884
      vertex 76.1311 38.0493 11.1884
    endloop
  endfacet
  facet normal 0.182549 -0.159685 -0.970143
    outer loop
      vertex 92.5087 56.772 11.1884
      vertex 66.9108 46.1147 8.12595
      vertex 83.1 67.6595 7.62595
    endloop
  endfacet
  facet normal 0.18255 -0.159685 -0.970142
    outer loop
      vertex 43.5138 22.4052 7.62595
      vertex 66.9108 46.1147 8.12595
      vertex 46.3359 22.5938 8.12595
    endloop
  endfacet
  facet normal 0.182549 -0.159685 -0.970143
    outer loop
      vertex 66.9108 46.1147 8.12595
      vertex 43.5138 22.4052 7.62595
      vertex 83.1 67.6595 7.62595
    endloop
  endfacet
  facet normal 0.182549 -0.159685 -0.970142
    outer loop
      vertex 74.314 -1.04962 17.2822
      vertex 66.9698 45.2328 8.2822
      vertex 94.0659 21.5305 17.2822
    endloop
  endfacet
  facet normal 0.182549 -0.159685 -0.970142
    outer loop
      vertex 66.9698 45.2328 8.2822
      vertex 74.314 -1.04962 17.2822
      vertex 47.2178 22.6527 8.2822
    endloop
  endfacet
  facet normal 0.182549 -0.159685 -0.970143
    outer loop
      vertex 85.6335 29.7371 14.3447
      vertex 84.42 46.5758 11.3447
      vertex 93.452 38.675 14.3447
    endloop
  endfacet
  facet normal 0.182549 -0.159685 -0.970143
    outer loop
      vertex 84.42 46.5758 11.3447
      vertex 85.6335 29.7371 14.3447
      vertex 76.6015 37.6378 11.3447
    endloop
  endfacet
  facet normal 0.182549 -0.159685 -0.970142
    outer loop
      vertex 86.9249 44.8829 12.0947
      vertex 92.5676 55.8901 11.3447
      vertex 94.8256 53.9149 12.0947
    endloop
  endfacet
  facet normal 0.182549 -0.159685 -0.970142
    outer loop
      vertex 92.5676 55.8901 11.3447
      vertex 86.9249 44.8829 12.0947
      vertex 84.6669 46.858 11.3447
    endloop
  endfacet
  facet normal 0.182549 -0.159685 -0.970143
    outer loop
      vertex 94.4774 22.0009 17.2822
      vertex 91.183 35.5115 14.4384
      vertex 99.7446 28.0223 17.2822
    endloop
  endfacet
  facet normal 0.182549 -0.159685 -0.970143
    outer loop
      vertex 91.183 35.5115 14.4384
      vertex 94.4774 22.0009 17.2822
      vertex 85.9158 29.4902 14.4384
    endloop
  endfacet
  facet normal 0.182549 -0.159685 -0.970142
    outer loop
      vertex 96.2392 36.7352 15.1884
      vertex 95.1079 53.668 12.1884
      vertex 104.14 45.7672 15.1884
    endloop
  endfacet
  facet normal 0.182549 -0.159685 -0.970142
    outer loop
      vertex 95.1079 53.668 12.1884
      vertex 96.2392 36.7352 15.1884
      vertex 87.2071 44.636 12.1884
    endloop
  endfacet
  facet normal 0.182549 -0.159685 -0.970143
    outer loop
      vertex 99.9915 28.3045 17.2822
      vertex 93.7343 38.4281 14.4384
      vertex 102.296 30.9389 17.2822
    endloop
  endfacet
  facet normal 0.182549 -0.159685 -0.970143
    outer loop
      vertex 93.7343 38.4281 14.4384
      vertex 99.9915 28.3045 17.2822
      vertex 91.4299 35.7938 14.4384
    endloop
  endfacet
  facet normal 0.182549 -0.159685 -0.970143
    outer loop
      vertex 102.543 31.2211 17.2822
      vertex 104.422 45.5203 15.2822
      vertex 110.444 40.2532 17.2822
    endloop
  endfacet
  facet normal 0.182549 -0.159685 -0.970143
    outer loop
      vertex 104.422 45.5203 15.2822
      vertex 102.543 31.2211 17.2822
      vertex 96.5214 36.4883 15.2822
    endloop
  endfacet
  facet normal -0.18255 0.159685 -0.970142
    outer loop
      vertex 114.363 -2.72979 16.0322
      vertex 113.353 4.65904 17.4384
      vertex 117.587 0.955551 16.0322
    endloop
  endfacet
  facet normal -0.182549 0.159685 -0.970142
    outer loop
      vertex 113.353 4.65904 17.4384
      vertex 114.363 -2.72979 16.0322
      vertex 103.947 -3.0562 17.9384
    endloop
  endfacet
  facet normal -0.18255 0.159685 -0.970142
    outer loop
      vertex 122.547 14.2204 17.2822
      vertex 143.904 -1.80406 10.6259
      vertex 140.971 -1.89596 11.1626
    endloop
  endfacet
  facet normal -0.182545 0.159686 -0.970143
    outer loop
      vertex 121.888 17.4541 17.9384
      vertex 122.547 14.2204 17.2822
      vertex 122.077 14.6319 17.4384
    endloop
  endfacet
  facet normal -0.18255 0.159685 -0.970142
    outer loop
      vertex 122.547 14.2204 17.2822
      vertex 121.888 17.4541 17.9384
      vertex 143.904 -1.80406 10.6259
    endloop
  endfacet
  facet normal -0.18255 0.159685 -0.970142
    outer loop
      vertex 122.077 14.6319 17.4384
      vertex 113.765 5.12946 17.4384
      vertex 121.888 17.4541 17.9384
    endloop
  endfacet
  facet normal -0.182548 0.159683 -0.970143
    outer loop
      vertex 103.947 -3.0562 17.9384
      vertex 113.765 5.12946 17.4384
      vertex 113.353 4.65904 17.4384
    endloop
  endfacet
  facet normal -0.182549 0.159685 -0.970142
    outer loop
      vertex 113.765 5.12946 17.4384
      vertex 103.947 -3.0562 17.9384
      vertex 121.888 17.4541 17.9384
    endloop
  endfacet
  facet normal -0.182549 0.159685 -0.970143
    outer loop
      vertex 122.459 -2.47608 14.5505
      vertex 125.289 -0.301544 14.3759
      vertex 123.413 -2.44618 14.3759
    endloop
  endfacet
  facet normal -0.182549 0.159685 -0.970143
    outer loop
      vertex 122.459 -2.47608 14.5505
      vertex 120.303 4.06032 16.0322
      vertex 125.289 -0.301544 14.3759
    endloop
  endfacet
  facet normal -0.182549 0.159685 -0.970143
    outer loop
      vertex 120.303 4.06032 16.0322
      vertex 122.459 -2.47608 14.5505
      vertex 114.235 4.71796 17.2822
    endloop
  endfacet
  facet normal -0.182549 0.159685 -0.970143
    outer loop
      vertex 120.303 4.06032 16.0322
      vertex 122.136 13.75 17.2822
      vertex 125.899 10.458 16.0322
    endloop
  endfacet
  facet normal -0.182549 0.159685 -0.970143
    outer loop
      vertex 122.136 13.75 17.2822
      vertex 120.303 4.06032 16.0322
      vertex 114.235 4.71796 17.2822
    endloop
  endfacet
  facet normal -0.18255 0.159685 -0.970142
    outer loop
      vertex 121.909 -2.49331 14.6512
      vertex 115.217 -2.70303 15.8759
      vertex 118.222 0.732224 15.8759
    endloop
  endfacet
  facet normal -0.182549 0.159685 -0.970142
    outer loop
      vertex 125.536 -0.0193024 14.3759
      vertex 126.181 10.2111 15.9384
      vertex 130.886 6.09613 14.3759
    endloop
  endfacet
  facet normal -0.182549 0.159685 -0.970142
    outer loop
      vertex 126.181 10.2111 15.9384
      vertex 125.536 -0.0193024 14.3759
      vertex 120.832 4.09567 15.9384
    endloop
  endfacet
  facet normal -0.182549 0.159685 -0.970143
    outer loop
      vertex 140.055 -1.92468 11.3304
      vertex 123.925 -2.43013 14.2822
      vertex 131.168 5.84923 14.2822
    endloop
  endfacet
  facet normal -0.18255 0.159685 -0.970142
    outer loop
      vertex 125.963 -22.3143 10.6259
      vertex 141.082 -1.99258 11.126
      vertex 143.904 -1.80406 10.6259
    endloop
  endfacet
  facet normal -0.182549 0.159685 -0.970143
    outer loop
      vertex 125.963 -22.3143 10.6259
      vertex 125.774 -19.4922 11.1259
      vertex 141.082 -1.99258 11.126
    endloop
  endfacet
  facet normal -0.182549 0.159685 -0.970142
    outer loop
      vertex 125.963 -22.3143 10.6259
      vertex 111.003 -6.57112 16.0322
      vertex 125.774 -19.4922 11.1259
    endloop
  endfacet
  facet normal -0.182549 0.159685 -0.970143
    outer loop
      vertex 111.003 -6.57112 16.0322
      vertex 125.963 -22.3143 10.6259
      vertex 103.947 -3.0562 17.9384
    endloop
  endfacet
  facet normal -0.18255 0.159685 -0.970142
    outer loop
      vertex 143.904 -1.80406 10.6259
      vertex 141.082 -1.99258 11.126
      vertex 140.971 -1.89596 11.1626
    endloop
  endfacet
  facet normal -0.182549 0.159684 -0.970143
    outer loop
      vertex 114.363 -2.72979 16.0322
      vertex 111.003 -6.57112 16.0322
      vertex 103.947 -3.0562 17.9384
    endloop
  endfacet
  facet normal -0.182549 0.159684 -0.970143
    outer loop
      vertex 116.401 -10.4626 14.3759
      vertex 121.909 -2.49331 14.6512
      vertex 122.738 -3.21814 14.3759
    endloop
  endfacet
  facet normal -0.18255 0.159685 -0.970142
    outer loop
      vertex 116.401 -10.4626 14.3759
      vertex 115.217 -2.70303 15.8759
      vertex 121.909 -2.49331 14.6512
    endloop
  endfacet
  facet normal -0.182549 0.159685 -0.970143
    outer loop
      vertex 115.217 -2.70303 15.8759
      vertex 116.401 -10.4626 14.3759
      vertex 111.885 -6.51221 15.8759
    endloop
  endfacet
  facet normal -0.182549 0.159685 -0.970143
    outer loop
      vertex 125.715 -18.6103 11.2822
      vertex 123.02 -3.46504 14.2822
      vertex 132.052 -11.3658 11.2822
    endloop
  endfacet
  facet normal -0.182549 0.159685 -0.970143
    outer loop
      vertex 123.02 -3.46504 14.2822
      vertex 125.715 -18.6103 11.2822
      vertex 116.683 -10.7095 14.2822
    endloop
  endfacet
  facet normal -0.182549 0.159684 -0.970143
    outer loop
      vertex 122.985 -2.9359 14.3759
      vertex 122.459 -2.47608 14.5505
      vertex 123.413 -2.44618 14.3759
    endloop
  endfacet
  facet normal -0.182552 0.159687 -0.970142
    outer loop
      vertex 132.299 -11.0836 11.2822
      vertex 140.055 -1.92468 11.3304
      vertex 140.2 -2.05151 11.2822
    endloop
  endfacet
  facet normal -0.182549 0.159685 -0.970142
    outer loop
      vertex 132.299 -11.0836 11.2822
      vertex 123.925 -2.43013 14.2822
      vertex 140.055 -1.92468 11.3304
    endloop
  endfacet
  facet normal -0.182549 0.159686 -0.970142
    outer loop
      vertex 123.925 -2.43013 14.2822
      vertex 132.299 -11.0836 11.2822
      vertex 123.267 -3.1828 14.2822
    endloop
  endfacet
  facet normal -0.159685 -0.182549 0.970142
    outer loop
      vertex 140.513 31.7204 20
      vertex 122.547 14.2204 13.75
      vertex 124.053 12.9036 13.75
    endloop
  endfacet
  facet normal -0.159685 -0.18255 0.970142
    outer loop
      vertex 140.513 31.7204 20
      vertex 122.077 14.6319 13.75
      vertex 122.547 14.2204 13.75
    endloop
  endfacet
  facet normal -0.159685 -0.182549 0.970142
    outer loop
      vertex 112.263 42.1491 17.3125
      vertex 140.513 31.7204 20
      vertex 117.744 51.6369 20
    endloop
  endfacet
  facet normal -0.159685 -0.182549 0.970143
    outer loop
      vertex 111.325 40.3121 16.8125
      vertex 140.513 31.7204 20
      vertex 112.263 42.1491 17.3125
    endloop
  endfacet
  facet normal -0.159685 -0.182549 0.970143
    outer loop
      vertex 140.513 31.7204 20
      vertex 111.325 40.3121 16.8125
      vertex 122.077 14.6319 13.75
    endloop
  endfacet
  facet normal -0.159685 -0.182549 0.970142
    outer loop
      vertex 108.34 36.8987 15.6787
      vertex 122.077 14.6319 13.75
      vertex 111.325 40.3121 16.8125
    endloop
  endfacet
  facet normal -0.159685 -0.182549 0.970142
    outer loop
      vertex 112.263 42.1491 17.3125
      vertex 117.744 51.6369 20
      vertex 110.667 43.5457 17.3125
    endloop
  endfacet
  facet normal -0.159685 -0.182549 0.970142
    outer loop
      vertex 94.9478 21.5894 10.5937
      vertex 122.077 14.6319 13.75
      vertex 108.34 36.8987 15.6787
    endloop
  endfacet
  facet normal -0.159685 -0.182549 0.970143
    outer loop
      vertex 122.077 14.6319 13.75
      vertex 94.9478 21.5894 10.5937
      vertex 113.765 5.12946 10.5937
    endloop
  endfacet
  facet normal -0.159684 -0.182549 0.970143
    outer loop
      vertex 112.263 42.1491 17.3125
      vertex 110.855 40.7236 16.8125
      vertex 111.325 40.3121 16.8125
    endloop
  endfacet
  facet normal -0.159685 -0.182549 0.970143
    outer loop
      vertex 110.855 40.7236 16.8125
      vertex 112.263 42.1491 17.3125
      vertex 109.441 41.9606 16.8125
    endloop
  endfacet
  facet normal -0.159685 -0.18255 0.970142
    outer loop
      vertex 113.765 5.12946 10.5937
      vertex 94.9478 21.5894 10.5937
      vertex 113.353 4.65904 10.4375
    endloop
  endfacet
  facet normal -0.159684 -0.182549 0.970143
    outer loop
      vertex 94.5363 21.119 10.4375
      vertex 113.353 4.65904 10.4375
      vertex 94.9478 21.5894 10.5937
    endloop
  endfacet
  facet normal -0.159685 -0.182549 0.970143
    outer loop
      vertex 113.353 4.65904 10.4375
      vertex 94.5363 21.119 10.4375
      vertex 112.036 3.15371 9.9375
    endloop
  endfacet
  facet normal -0.159685 -0.182549 0.970142
    outer loop
      vertex 112.036 3.15371 9.9375
      vertex 94.5363 21.119 10.4375
      vertex 93.2195 19.6136 9.9375
    endloop
  endfacet
  facet normal -0.658398 -0.75267 0
    outer loop
      vertex 93.2195 19.6136 9.9375
      vertex 112.036 3.15371 7.87595
      vertex 112.036 3.15371 9.9375
    endloop
  endfacet
  facet normal -0.658398 -0.75267 0
    outer loop
      vertex 112.036 3.15371 7.87595
      vertex 93.2195 19.6136 9.9375
      vertex 93.2195 19.6136 7.87595
    endloop
  endfacet
  facet normal 0.658398 0.75267 -0
    outer loop
      vertex 140.513 31.7204 17.9384
      vertex 117.744 51.6369 20
      vertex 140.513 31.7204 20
    endloop
  endfacet
  facet normal 0.658398 0.75267 0
    outer loop
      vertex 117.744 51.6369 20
      vertex 140.513 31.7204 17.9384
      vertex 117.744 51.6369 17.9384
    endloop
  endfacet
  facet normal -0.75267 0.658398 0
    outer loop
      vertex 110.667 43.5457 17.3125
      vertex 117.744 51.6369 17.9384
      vertex 110.667 43.5457 16.7822
    endloop
  endfacet
  facet normal -0.75267 0.658398 7.35323e-08
    outer loop
      vertex 109.35 42.0404 14.7509
      vertex 110.667 43.5457 16.7822
      vertex 117.744 51.6369 17.9384
    endloop
  endfacet
  facet normal -0.75267 0.658398 0
    outer loop
      vertex 110.667 43.5457 16.7822
      vertex 109.35 42.0404 14.7509
      vertex 109.35 42.0404 16.7822
    endloop
  endfacet
  facet normal -0.75267 0.658398 0
    outer loop
      vertex 117.744 51.6369 17.9384
      vertex 110.667 43.5457 17.3125
      vertex 117.744 51.6369 20
    endloop
  endfacet
  facet normal 0.75267 -0.658398 0
    outer loop
      vertex 124.053 12.9036 13.75
      vertex 140.513 31.7204 17.9384
      vertex 140.513 31.7204 20
    endloop
  endfacet
  facet normal 0.75267 -0.658398 0
    outer loop
      vertex 140.513 31.7204 17.9384
      vertex 124.053 12.9036 13.75
      vertex 124.053 12.9036 11.6884
    endloop
  endfacet
  facet normal -0.182549 0.159685 0.970143
    outer loop
      vertex 83.1 67.6595 9.6875
      vertex 74.5614 -4.75368 20
      vertex 114.148 40.5006 20
    endloop
  endfacet
  facet normal -0.182549 0.159685 0.970142
    outer loop
      vertex 74.5614 -4.75368 20
      vertex 83.1 67.6595 9.6875
      vertex 43.5138 22.4052 9.6875
    endloop
  endfacet
  facet normal -0.75267 0.658398 0
    outer loop
      vertex 43.5138 22.4052 7.62595
      vertex 83.1 67.6595 9.6875
      vertex 83.1 67.6595 7.62595
    endloop
  endfacet
  facet normal -0.75267 0.658398 0
    outer loop
      vertex 83.1 67.6595 9.6875
      vertex 43.5138 22.4052 7.62595
      vertex 43.5138 22.4052 9.6875
    endloop
  endfacet
  facet normal 0.75267 -0.658398 0
    outer loop
      vertex 74.5614 -4.75368 20
      vertex 114.148 40.5006 17.9384
      vertex 114.148 40.5006 20
    endloop
  endfacet
  facet normal 0.75267 -0.658398 0
    outer loop
      vertex 114.148 40.5006 17.9384
      vertex 74.5614 -4.75368 20
      vertex 74.5614 -4.75368 17.9384
    endloop
  endfacet
  facet normal 0.658397 0.752671 0
    outer loop
      vertex 112.263 42.1491 17.3125
      vertex 114.148 40.5006 20
      vertex 114.148 40.5006 17.9384
    endloop
  endfacet
  facet normal 0.658398 0.75267 -1.49836e-06
    outer loop
      vertex 110.667 43.5457 17.3125
      vertex 114.148 40.5006 20
      vertex 112.263 42.1491 17.3125
    endloop
  endfacet
  facet normal 0.658398 0.75267 -4.54381e-07
    outer loop
      vertex 110.667 43.5457 17.3125
      vertex 83.1 67.6595 9.6875
      vertex 114.148 40.5006 20
    endloop
  endfacet
  facet normal 0.658398 0.75267 -0
    outer loop
      vertex 110.667 43.5457 16.7822
      vertex 83.1 67.6595 9.6875
      vertex 110.667 43.5457 17.3125
    endloop
  endfacet
  facet normal 0.658398 0.75267 0
    outer loop
      vertex 83.1 67.6595 9.6875
      vertex 110.667 43.5457 16.7822
      vertex 83.1 67.6595 7.62595
    endloop
  endfacet
  facet normal -0.658398 -0.75267 0
    outer loop
      vertex 43.5138 22.4052 9.6875
      vertex 74.5614 -4.75368 17.9384
      vertex 74.5614 -4.75368 20
    endloop
  endfacet
  facet normal -0.658398 -0.75267 0
    outer loop
      vertex 74.5614 -4.75368 17.9384
      vertex 43.5138 22.4052 9.6875
      vertex 43.5138 22.4052 7.62595
    endloop
  endfacet
  facet normal 0.658398 0.75267 0
    outer loop
      vertex 143.904 -1.80406 12.6875
      vertex 121.888 17.4541 17.9384
      vertex 121.888 17.4541 20
    endloop
  endfacet
  facet normal 0.658398 0.75267 0
    outer loop
      vertex 121.888 17.4541 17.9384
      vertex 143.904 -1.80406 12.6875
      vertex 143.904 -1.80406 10.6259
    endloop
  endfacet
  facet normal 0.182549 -0.159685 0.970142
    outer loop
      vertex 143.904 -1.80406 12.6875
      vertex 121.888 17.4541 20
      vertex 125.963 -22.3143 12.6875
    endloop
  endfacet
  facet normal 0.182549 -0.159685 0.970143
    outer loop
      vertex 121.888 17.4541 20
      vertex 103.947 -3.0562 20
      vertex 125.963 -22.3143 12.6875
    endloop
  endfacet
  facet normal -0.658398 -0.75267 0
    outer loop
      vertex 103.947 -3.0562 17.9384
      vertex 125.963 -22.3143 12.6875
      vertex 103.947 -3.0562 20
    endloop
  endfacet
  facet normal -0.658398 -0.75267 -0
    outer loop
      vertex 125.963 -22.3143 12.6875
      vertex 103.947 -3.0562 17.9384
      vertex 125.963 -22.3143 10.6259
    endloop
  endfacet
  facet normal -0.75267 0.658398 0
    outer loop
      vertex 103.947 -3.0562 17.9384
      vertex 121.888 17.4541 20
      vertex 121.888 17.4541 17.9384
    endloop
  endfacet
  facet normal -0.75267 0.658398 0
    outer loop
      vertex 121.888 17.4541 20
      vertex 103.947 -3.0562 17.9384
      vertex 103.947 -3.0562 20
    endloop
  endfacet
  facet normal 0.75267 -0.658398 0
    outer loop
      vertex 125.963 -22.3143 12.6875
      vertex 143.904 -1.80406 10.6259
      vertex 143.904 -1.80406 12.6875
    endloop
  endfacet
  facet normal 0.75267 -0.658398 0
    outer loop
      vertex 143.904 -1.80406 10.6259
      vertex 125.963 -22.3143 12.6875
      vertex 125.963 -22.3143 10.6259
    endloop
  endfacet
endsolid OpenSCAD_Model
